<?xml version="1.0" encoding="UTF-8" standalone="no"?><svg xmlns="http://www.w3.org/2000/svg" xmlns:xlink="http://www.w3.org/1999/xlink" height="308" version="1.1" width="712"><defs/><g><g><path d=" M 10 10 L 702 10 L 702 298 L 10 298 L 10 10" fill="none" paint-order="fill stroke markers" stroke="#000000" stroke-dasharray="" stroke-miterlimit="10"/></g><g><path d=" M 10 10 L 10 33 L 211.67529296875 33 L 223.17529296875 21.5 L 223.17529296875 10 L 10 10" fill="#ffffff" paint-order="stroke fill markers" stroke="none"/></g><g><path d=" M 10 10 L 10 33 L 211.67529296875 33 L 223.17529296875 21.5 L 223.17529296875 10 L 10 10 L 10 10" fill="none" paint-order="fill stroke markers" stroke="#000000" stroke-dasharray="" stroke-miterlimit="10"/></g><g><g><path fill="none" stroke="none"/><text dominant-baseline="central" fill="#000000" font-family="Arial" font-size="13px" font-style="normal" font-weight="normal" stroke="none" text-anchor="middle" text-decoration="undefined" transform="matrix(1 0 0 1 2 2)" x="118.70263671875" y="19.5">DSS Gerar Ordem de Serviço</text></g></g><g><g><path fill="none" stroke="none"/><text dominant-baseline="central" fill="#000000" font-family="Arial" font-size="13px" font-style="normal" font-weight="bold" stroke="none" text-anchor="middle" text-decoration="undefined" transform="matrix(1 0 0 1 2 2)" x="19.864990234375" y="19.5">sd</text></g></g><g><rect fill="#C0C0C0" fill-opacity="0.2" height="40" stroke="none" transform="matrix(1 0 0 1 2 2)" width="72.736328125" x="55" y="47"/></g><g><rect fill="#ffffff" height="40" stroke="none" transform="matrix(1 0 0 1 2 2)" width="72.736328125" x="48" y="40"/></g><g><path d=" M 50 42 L 122.736328125 42 L 122.736328125 82 L 50 82 L 50 42 Z Z" fill="none" paint-order="fill stroke markers" stroke="#000000" stroke-dasharray="" stroke-miterlimit="10"/></g><g><g><path fill="none" stroke="none"/><text dominant-baseline="central" fill="#000000" font-family="Arial" font-size="13px" font-style="normal" font-weight="bold" stroke="none" text-anchor="middle" text-decoration="undefined" transform="matrix(1 0 0 1 2 2)" x="84.8681640625" y="53.5">:Luthier</text></g></g><g><path d=" M 86.5 83 L 86.5 250" fill="none" paint-order="fill stroke markers" stroke="#000000" stroke-dasharray="3" stroke-miterlimit="10"/></g><g><rect fill="#C0C0C0" fill-opacity="0.2" height="40" stroke="none" transform="matrix(1 0 0 1 2 2)" width="74.18994140625" x="239" y="47"/></g><g><rect fill="#ffffff" height="40" stroke="none" transform="matrix(1 0 0 1 2 2)" width="74.18994140625" x="232" y="40"/></g><g><path d=" M 234 42 L 308.18994140625 42 L 308.18994140625 82 L 234 82 L 234 42 Z Z" fill="none" paint-order="fill stroke markers" stroke="#000000" stroke-dasharray="" stroke-miterlimit="10"/></g><g><g><path fill="none" stroke="none"/><text dominant-baseline="central" fill="#000000" font-family="Arial" font-size="13px" font-style="normal" font-weight="bold" stroke="none" text-anchor="middle" text-decoration="undefined" transform="matrix(1 0 0 1 2 2)" x="269.594970703125" y="53.5">:Sistema</text></g></g><g><path d=" M 271.5 83 L 271.5 250" fill="none" paint-order="fill stroke markers" stroke="#000000" stroke-dasharray="3" stroke-miterlimit="10"/></g><g><path d=" M 87 90 L 271 90" fill="none" paint-order="fill stroke markers" stroke="#000000" stroke-dasharray="" stroke-miterlimit="10"/></g><g><path d=" M 260.83732514237585 94.20951775601598 L 271 90 L 260.83732514237585 85.79048224398402" fill="none" paint-order="fill stroke markers" stroke="#000000" stroke-dasharray="" stroke-miterlimit="10"/></g><g><rect fill="#ffffff" height="13" stroke="none" transform="matrix(1 0 0 1 2 2)" width="92.45361328125" x="131" y="72"/></g><g><g><path fill="none" stroke="none"/><text dominant-baseline="central" fill="#000000" font-family="Arial" font-size="13px" font-style="normal" font-weight="normal" stroke="none" text-anchor="middle" text-decoration="undefined" transform="matrix(1 0 0 1 2 2)" x="177.226806640625" y="78.5">1 : CriarOS(OS)</text></g></g><g><path d=" M 271 106 L 87 106" fill="none" paint-order="fill stroke markers" stroke="#000000" stroke-dasharray="3" stroke-miterlimit="10"/></g><g><path d=" M 97.16267485762415 101.79048224398402 L 87 106 L 97.16267485762415 110.20951775601598" fill="none" paint-order="fill stroke markers" stroke="#000000" stroke-dasharray="" stroke-miterlimit="10"/></g><g><rect fill="#ffffff" height="13" stroke="none" transform="matrix(1 0 0 1 2 2)" width="136.58251953125" x="108" y="104"/></g><g><g><path fill="none" stroke="none"/><text dominant-baseline="central" fill="#000000" font-family="Arial" font-size="13px" font-style="normal" font-weight="normal" stroke="none" text-anchor="middle" text-decoration="undefined" transform="matrix(1 0 0 1 2 2)" x="176.291259765625" y="110.5">2 : formulário</text></g></g><g><path d=" M 87 146 L 271 146" fill="none" paint-order="fill stroke markers" stroke="#000000" stroke-dasharray="" stroke-miterlimit="10"/></g><g><path d=" M 260.83732514237585 150.209517756016 L 271 146 L 260.83732514237585 141.790482243984" fill="none" paint-order="fill stroke markers" stroke="#000000" stroke-dasharray="" stroke-miterlimit="10"/></g><g><rect fill="#ffffff" height="13" stroke="none" transform="matrix(1 0 0 1 2 2)" width="167.60986328125" x="88" y="127"/></g><g><g><path fill="none" stroke="none"/><text dominant-baseline="central" fill="#000000" font-family="Arial" font-size="13px" font-style="normal" font-weight="normal" stroke="none" text-anchor="middle" text-decoration="undefined" transform="matrix(1 0 0 1 2 2)" x="171.804931640625" y="133.5">3 : PreencherFormulário(OS)</text></g></g><g><path d=" M 271 162 L 87 162" fill="none" paint-order="fill stroke markers" stroke="#000000" stroke-dasharray="3" stroke-miterlimit="10"/></g><g><path d=" M 97.16267485762415 157.790482243984 L 87 162 L 97.16267485762415 166.209517756016" fill="none" paint-order="fill stroke markers" stroke="#000000" stroke-dasharray="" stroke-miterlimit="10"/></g><g><rect fill="#ffffff" height="13" stroke="none" transform="matrix(1 0 0 1 2 2)" width="90.314453125" x="131" y="164"/></g><g><g><path fill="none" stroke="none"/><text dominant-baseline="central" fill="#000000" font-family="Arial" font-size="13px" font-style="normal" font-weight="normal" stroke="none" text-anchor="middle" text-decoration="undefined" transform="matrix(1 0 0 1 2 2)" x="176.1572265625" y="170.5">4 : arquivo PDF</text></g></g><g><path d=" M 87 203 L 271 203" fill="none" paint-order="fill stroke markers" stroke="#000000" stroke-dasharray="" stroke-miterlimit="10"/></g><g><path d=" M 260.83732514237585 207.209517756016 L 271 203 L 260.83732514237585 198.790482243984" fill="none" paint-order="fill stroke markers" stroke="#000000" stroke-dasharray="" stroke-miterlimit="10"/></g><g><rect fill="#ffffff" height="13" stroke="none" transform="matrix(1 0 0 1 2 2)" width="111.2236328125" x="122" y="185"/></g><g><g><path fill="none" stroke="none"/><text dominant-baseline="central" fill="#000000" font-family="Arial" font-size="13px" font-style="normal" font-weight="normal" stroke="none" text-anchor="middle" text-decoration="undefined" transform="matrix(1 0 0 1 2 2)" x="177.61181640625" y="191.5">5 : ImprimirOS(OS)</text></g></g><g><path d=" M 271 219 L 87 219" fill="none" paint-order="fill stroke markers" stroke="#000000" stroke-dasharray="3" stroke-miterlimit="10"/></g><g><path d=" M 97.16267485762415 214.790482243984 L 87 219 L 97.16267485762415 223.209517756016" fill="none" paint-order="fill stroke markers" stroke="#000000" stroke-dasharray="" stroke-miterlimit="10"/></g><g><rect fill="#ffffff" height="13" stroke="none" transform="matrix(1 0 0 1 2 2)" width="117.06982421875" x="118" y="221"/></g><g><g><path fill="none" stroke="none"/><text dominant-baseline="central" fill="#000000" font-family="Arial" font-size="13px" font-style="normal" font-weight="normal" stroke="none" text-anchor="middle" text-decoration="undefined" transform="matrix(1 0 0 1 2 2)" x="176.534912109375" y="227.5">6 : conclusão da OS</text></g></g></g></svg>