<?xml version="1.0" encoding="UTF-8" standalone="no"?><svg xmlns="http://www.w3.org/2000/svg" xmlns:xlink="http://www.w3.org/1999/xlink" height="300" version="1.1" width="712"><defs/><g><g><path d=" M 10 10 L 702 10 L 702 290 L 10 290 L 10 10" fill="none" paint-order="fill stroke markers" stroke="#000000" stroke-dasharray="" stroke-miterlimit="10"/></g><g><path d=" M 10 10 L 10 33 L 227.56982421875 33 L 239.06982421875 21.5 L 239.06982421875 10 L 10 10" fill="#ffffff" paint-order="stroke fill markers" stroke="none"/></g><g><path d=" M 10 10 L 10 33 L 227.56982421875 33 L 239.06982421875 21.5 L 239.06982421875 10 L 10 10 L 10 10" fill="none" paint-order="fill stroke markers" stroke="#000000" stroke-dasharray="" stroke-miterlimit="10"/></g><g><g><path fill="none" stroke="none"/><text dominant-baseline="central" fill="#000000" font-family="Arial" font-size="13px" font-style="normal" font-weight="normal" stroke="none" text-anchor="middle" text-decoration="undefined" transform="matrix(1 0 0 1 2 2)" x="126.64990234375" y="19.5">DSS Finalizar Ordem de Serviço</text></g></g><g><g><path fill="none" stroke="none"/><text dominant-baseline="central" fill="#000000" font-family="Arial" font-size="13px" font-style="normal" font-weight="bold" stroke="none" text-anchor="middle" text-decoration="undefined" transform="matrix(1 0 0 1 2 2)" x="19.864990234375" y="19.5">sd</text></g></g><g><rect fill="#C0C0C0" fill-opacity="0.2" height="40" stroke="none" transform="matrix(1 0 0 1 2 2)" width="72.736328125" x="31" y="47"/></g><g><rect fill="#ffffff" height="40" stroke="none" transform="matrix(1 0 0 1 2 2)" width="72.736328125" x="24" y="40"/></g><g><path d=" M 26 42 L 98.736328125 42 L 98.736328125 82 L 26 82 L 26 42 Z Z" fill="none" paint-order="fill stroke markers" stroke="#000000" stroke-dasharray="" stroke-miterlimit="10"/></g><g><g><path fill="none" stroke="none"/><text dominant-baseline="central" fill="#000000" font-family="Arial" font-size="13px" font-style="normal" font-weight="bold" stroke="none" text-anchor="middle" text-decoration="undefined" transform="matrix(1 0 0 1 2 2)" x="60.8681640625" y="53.5">:Luthier</text></g></g><g><path d=" M 62.5 83 L 62.5 249" fill="none" paint-order="fill stroke markers" stroke="#000000" stroke-dasharray="3" stroke-miterlimit="10"/></g><g><rect fill="#C0C0C0" fill-opacity="0.2" height="40" stroke="none" transform="matrix(1 0 0 1 2 2)" width="74.18994140625" x="215" y="47"/></g><g><rect fill="#ffffff" height="40" stroke="none" transform="matrix(1 0 0 1 2 2)" width="74.18994140625" x="208" y="40"/></g><g><path d=" M 210 42 L 284.18994140625 42 L 284.18994140625 82 L 210 82 L 210 42 Z Z" fill="none" paint-order="fill stroke markers" stroke="#000000" stroke-dasharray="" stroke-miterlimit="10"/></g><g><g><path fill="none" stroke="none"/><text dominant-baseline="central" fill="#000000" font-family="Arial" font-size="13px" font-style="normal" font-weight="bold" stroke="none" text-anchor="middle" text-decoration="undefined" transform="matrix(1 0 0 1 2 2)" x="245.594970703125" y="53.5">:Sistema</text></g></g><g><path d=" M 247.5 83 L 247.5 249" fill="none" paint-order="fill stroke markers" stroke="#000000" stroke-dasharray="3" stroke-miterlimit="10"/></g><g><path d=" M 63 106 L 247 106" fill="none" paint-order="fill stroke markers" stroke="#000000" stroke-dasharray="" stroke-miterlimit="10"/></g><g><path d=" M 236.83732514237585 110.20951775601598 L 247 106 L 236.83732514237585 101.79048224398402" fill="none" paint-order="fill stroke markers" stroke="#000000" stroke-dasharray="" stroke-miterlimit="10"/></g><g><rect fill="#ffffff" height="13" stroke="none" transform="matrix(1 0 0 1 2 2)" width="125.71533203125" x="80" y="87"/></g><g><g><path fill="none" stroke="none"/><text dominant-baseline="central" fill="#000000" font-family="Arial" font-size="13px" font-style="normal" font-weight="normal" stroke="none" text-anchor="middle" text-decoration="undefined" transform="matrix(1 0 0 1 2 2)" x="142.857666015625" y="93.5">1 : SelecionarOS(OS)</text></g></g><g><path d=" M 247 130 L 63 130" fill="none" paint-order="fill stroke markers" stroke="#000000" stroke-dasharray="3" stroke-miterlimit="10"/></g><g><path d=" M 73.16267485762415 125.79048224398402 L 63 130 L 73.16267485762415 134.209517756016" fill="none" paint-order="fill stroke markers" stroke="#000000" stroke-dasharray="" stroke-miterlimit="10"/></g><g><rect fill="#ffffff" height="13" stroke="none" transform="matrix(1 0 0 1 2 2)" width="75.86083984375" x="115" y="132"/></g><g><g><path fill="none" stroke="none"/><text dominant-baseline="central" fill="#000000" font-family="Arial" font-size="13px" font-style="normal" font-weight="normal" stroke="none" text-anchor="middle" text-decoration="undefined" transform="matrix(1 0 0 1 2 2)" x="152.930419921875" y="138.5">2 : formulário</text></g></g><g><path d=" M 63 178 L 247 178" fill="none" paint-order="fill stroke markers" stroke="#000000" stroke-dasharray="" stroke-miterlimit="10"/></g><g><path d=" M 236.83732514237585 182.209517756016 L 247 178 L 236.83732514237585 173.790482243984" fill="none" paint-order="fill stroke markers" stroke="#000000" stroke-dasharray="" stroke-miterlimit="10"/></g><g><rect fill="#ffffff" height="13" stroke="none" transform="matrix(1 0 0 1 2 2)" width="153.892578125" x="77" y="160"/></g><g><g><path fill="none" stroke="none"/><text dominant-baseline="central" fill="#000000" font-family="Arial" font-size="13px" font-style="normal" font-weight="normal" stroke="none" text-anchor="middle" text-decoration="undefined" transform="matrix(1 0 0 1 2 2)" x="153.9462890625" y="166.5">3 : PreencherCampos(OS)</text></g></g><g><path d=" M 63 202 L 247 202" fill="none" paint-order="fill stroke markers" stroke="#000000" stroke-dasharray="" stroke-miterlimit="10"/></g><g><path d=" M 236.83732514237585 206.209517756016 L 247 202 L 236.83732514237585 197.790482243984" fill="none" paint-order="fill stroke markers" stroke="#000000" stroke-dasharray="" stroke-miterlimit="10"/></g><g><rect fill="#ffffff" height="13" stroke="none" transform="matrix(1 0 0 1 2 2)" width="111.97265625" x="98" y="184"/></g><g><g><path fill="none" stroke="none"/><text dominant-baseline="central" fill="#000000" font-family="Arial" font-size="13px" font-style="normal" font-weight="normal" stroke="none" text-anchor="middle" text-decoration="undefined" transform="matrix(1 0 0 1 2 2)" x="153.986328125" y="190.5">4 : ConcluirOS(OS)</text></g></g><g><path d=" M 247 218 L 63 218" fill="none" paint-order="fill stroke markers" stroke="#000000" stroke-dasharray="3" stroke-miterlimit="10"/></g><g><path d=" M 73.16267485762415 213.790482243984 L 63 218 L 73.16267485762415 222.209517756016" fill="none" paint-order="fill stroke markers" stroke="#000000" stroke-dasharray="" stroke-miterlimit="10"/></g><g><rect fill="#ffffff" height="13" stroke="none" transform="matrix(1 0 0 1 2 2)" width="135.13525390625" x="85" y="220"/></g><g><g><path fill="none" stroke="none"/><text dominant-baseline="central" fill="#000000" font-family="Arial" font-size="13px" font-style="normal" font-weight="normal" stroke="none" text-anchor="middle" text-decoration="undefined" transform="matrix(1 0 0 1 2 2)" x="152.567626953125" y="226.5">5 : envio de mensagem</text></g></g></g></svg>