<?xml version="1.0" encoding="UTF-8" standalone="no"?><svg xmlns="http://www.w3.org/2000/svg" xmlns:xlink="http://www.w3.org/1999/xlink" height="732" version="1.1" width="867"><defs/><g><g><path d=" M 276.1863671875 355.85 C 276.1863671875 350.96227952000004 280.1441695555 347 285.0263671875 347 C 289.9085648195 347 293.8663671875 350.96227952000004 293.8663671875 355.85 C 293.8663671875 360.73772048 289.9085648195 364.7 285.0263671875 364.7 C 280.1441695555 364.7 276.1863671875 360.73772048 276.1863671875 355.85 Z" fill="#ffffff" paint-order="stroke fill markers" stroke="none"/></g><g><path d=" M 276.1863671875 355.85 C 276.1863671875 350.96227952000004 280.1441695555 347 285.0263671875 347 C 289.9085648195 347 293.8663671875 350.96227952000004 293.8663671875 355.85 C 293.8663671875 360.73772048 289.9085648195 364.7 285.0263671875 364.7 C 280.1441695555 364.7 276.1863671875 360.73772048 276.1863671875 355.85 Z" fill="none" paint-order="fill stroke markers" stroke="#000000" stroke-dasharray="" stroke-miterlimit="10"/></g><g><path d=" M 285.0263671875 364.7 L 285.0263671875 382.3" fill="none" paint-order="fill stroke markers" stroke="#000000" stroke-dasharray="" stroke-miterlimit="10"/></g><g><path d=" M 275.6663671875 371.3 L 294.3863671875 371.3" fill="none" paint-order="fill stroke markers" stroke="#000000" stroke-dasharray="" stroke-miterlimit="10"/></g><g><path d=" M 285.0263671875 382.3 L 272.0263671875 400" fill="none" paint-order="fill stroke markers" stroke="#000000" stroke-dasharray="" stroke-miterlimit="10"/></g><g><path d=" M 285.0263671875 382.3 L 298.0263671875 400" fill="none" paint-order="fill stroke markers" stroke="#000000" stroke-dasharray="" stroke-miterlimit="10"/></g><g><g><path fill="none" stroke="none"/><text dominant-baseline="central" fill="#000000" font-family="Arial" font-size="13px" font-style="normal" font-weight="bold" stroke="none" text-anchor="middle" text-decoration="undefined" transform="matrix(1 0 0 1 -102 -30)" x="387.5263671875" y="444.5">Luthier</text></g></g><g><path d=" M 91.8308984375 363.85 C 91.8308984375 358.96227952000004 95.78870080549999 355 100.6708984375 355 C 105.55309606950001 355 109.5108984375 358.96227952000004 109.5108984375 363.85 C 109.5108984375 368.73772048 105.55309606950001 372.7 100.6708984375 372.7 C 95.78870080549999 372.7 91.8308984375 368.73772048 91.8308984375 363.85 Z" fill="#ffffff" paint-order="stroke fill markers" stroke="none"/></g><g><path d=" M 91.8308984375 363.85 C 91.8308984375 358.96227952000004 95.78870080549999 355 100.6708984375 355 C 105.55309606950001 355 109.5108984375 358.96227952000004 109.5108984375 363.85 C 109.5108984375 368.73772048 105.55309606950001 372.7 100.6708984375 372.7 C 95.78870080549999 372.7 91.8308984375 368.73772048 91.8308984375 363.85 Z" fill="none" paint-order="fill stroke markers" stroke="#000000" stroke-dasharray="" stroke-miterlimit="10"/></g><g><path d=" M 100.6708984375 372.7 L 100.6708984375 390.3" fill="none" paint-order="fill stroke markers" stroke="#000000" stroke-dasharray="" stroke-miterlimit="10"/></g><g><path d=" M 91.31089843749999 379.3 L 110.03089843750001 379.3" fill="none" paint-order="fill stroke markers" stroke="#000000" stroke-dasharray="" stroke-miterlimit="10"/></g><g><path d=" M 100.6708984375 390.3 L 87.6708984375 408" fill="none" paint-order="fill stroke markers" stroke="#000000" stroke-dasharray="" stroke-miterlimit="10"/></g><g><path d=" M 100.6708984375 390.3 L 113.6708984375 408" fill="none" paint-order="fill stroke markers" stroke="#000000" stroke-dasharray="" stroke-miterlimit="10"/></g><g><g><path fill="none" stroke="none"/><text dominant-baseline="central" fill="#000000" font-family="Arial" font-size="13px" font-style="normal" font-weight="bold" stroke="none" text-anchor="middle" text-decoration="undefined" transform="matrix(1 0 0 1 -102 -30)" x="203.1708984375" y="452.5">Cliente</text></g></g><g><path d=" M 128 393 L 257 387" fill="none" paint-order="fill stroke markers" stroke="#000000" stroke-dasharray="" stroke-miterlimit="10"/></g><g><path d=" M 201 149 C 201 133.5360256 251.36795999999998 121 313.5 121 C 375.63204 121 426 133.5360256 426 149 C 426 164.4639744 375.63204 177 313.5 177 C 251.36795999999998 177 201 164.4639744 201 149 Z" fill="#C0C0C0" fill-opacity="0.2" paint-order="stroke fill markers" stroke="none"/></g><g><path d=" M 194 142 C 194 126.53602559999999 244.36795999999998 114 306.5 114 C 368.63204 114 419 126.53602559999999 419 142 C 419 157.4639744 368.63204 170 306.5 170 C 244.36795999999998 170 194 157.4639744 194 142 Z" fill="#ffffff" paint-order="stroke fill markers" stroke="none"/></g><g><path d=" M 194 142 C 194 126.53602559999999 244.36795999999998 114 306.5 114 C 368.63204 114 419 126.53602559999999 419 142 C 419 157.4639744 368.63204 170 306.5 170 C 244.36795999999998 170 194 157.4639744 194 142 Z" fill="none" paint-order="fill stroke markers" stroke="#000000" stroke-dasharray="" stroke-miterlimit="10"/></g><g><g><path fill="none" stroke="none"/><text dominant-baseline="central" fill="#000000" font-family="Arial" font-size="13px" font-style="normal" font-weight="bold" stroke="none" text-anchor="middle" text-decoration="undefined" transform="matrix(1 0 0 1 -102 -30)" x="408.5" y="173">Gerar Ordem de Serviço</text></g></g><g><path d=" M 457 133 C 457 117.53602559999999 514.3075456 105 585 105 C 655.6924544 105 713 117.53602559999999 713 133 C 713 148.4639744 655.6924544 161 585 161 C 514.3075456 161 457 148.4639744 457 133 Z" fill="#C0C0C0" fill-opacity="0.2" paint-order="stroke fill markers" stroke="none"/></g><g><path d=" M 450 126 C 450 110.53602559999999 507.3075456 98 578 98 C 648.6924544 98 706 110.53602559999999 706 126 C 706 141.4639744 648.6924544 154 578 154 C 507.3075456 154 450 141.4639744 450 126 Z" fill="#ffffff" paint-order="stroke fill markers" stroke="none"/></g><g><path d=" M 450 126 C 450 110.53602559999999 507.3075456 98 578 98 C 648.6924544 98 706 110.53602559999999 706 126 C 706 141.4639744 648.6924544 154 578 154 C 507.3075456 154 450 141.4639744 450 126 Z" fill="none" paint-order="fill stroke markers" stroke="#000000" stroke-dasharray="" stroke-miterlimit="10"/></g><g><g><path fill="none" stroke="none"/><text dominant-baseline="central" fill="#000000" font-family="Arial" font-size="13px" font-style="normal" font-weight="bold" stroke="none" text-anchor="middle" text-decoration="undefined" transform="matrix(1 0 0 1 -102 -30)" x="680" y="157">Finalizar Ordem de Serviço.</text></g></g><g><path d=" M 545 253 C 545 237.53602560000002 584.6227952 225 633.5 225 C 682.3772048 225 722 237.53602560000002 722 253 C 722 268.4639744 682.3772048 281 633.5 281 C 584.6227952 281 545 268.4639744 545 253 Z" fill="#C0C0C0" fill-opacity="0.2" paint-order="stroke fill markers" stroke="none"/></g><g><path d=" M 538 246 C 538 230.53602560000002 577.6227952 218 626.5 218 C 675.3772048 218 715 230.53602560000002 715 246 C 715 261.4639744 675.3772048 274 626.5 274 C 577.6227952 274 538 261.4639744 538 246 Z" fill="#ffffff" paint-order="stroke fill markers" stroke="none"/></g><g><path d=" M 538 246 C 538 230.53602560000002 577.6227952 218 626.5 218 C 675.3772048 218 715 230.53602560000002 715 246 C 715 261.4639744 675.3772048 274 626.5 274 C 577.6227952 274 538 261.4639744 538 246 Z" fill="none" paint-order="fill stroke markers" stroke="#000000" stroke-dasharray="" stroke-miterlimit="10"/></g><g><g><path fill="none" stroke="none"/><text dominant-baseline="central" fill="#000000" font-family="Arial" font-size="13px" font-style="normal" font-weight="bold" stroke="none" text-anchor="middle" text-decoration="undefined" transform="matrix(1 0 0 1 -102 -30)" x="728.5" y="277">Gerenciar Agenda.</text></g></g><g><path d=" M 497 449 C 497 431.3268864 555.8745488 417 628.5 417 C 701.1254512 417 760 431.3268864 760 449 C 760 466.6731136 701.1254512 481 628.5 481 C 555.8745488 481 497 466.6731136 497 449 Z" fill="#C0C0C0" fill-opacity="0.2" paint-order="stroke fill markers" stroke="none"/></g><g><path d=" M 490 442 C 490 424.3268864 548.8745488 410 621.5 410 C 694.1254512 410 753 424.3268864 753 442 C 753 459.6731136 694.1254512 474 621.5 474 C 548.8745488 474 490 459.6731136 490 442 Z" fill="#ffffff" paint-order="stroke fill markers" stroke="none"/></g><g><path d=" M 490 442 C 490 424.3268864 548.8745488 410 621.5 410 C 694.1254512 410 753 424.3268864 753 442 C 753 459.6731136 694.1254512 474 621.5 474 C 548.8745488 474 490 459.6731136 490 442 Z" fill="none" paint-order="fill stroke markers" stroke="#000000" stroke-dasharray="" stroke-miterlimit="10"/></g><g><g><path fill="none" stroke="none"/><text dominant-baseline="central" fill="#000000" font-family="Arial" font-size="13px" font-style="normal" font-weight="bold" stroke="none" text-anchor="middle" text-decoration="undefined" transform="matrix(1 0 0 1 -102 -30)" x="723.5" y="473">Cadastrar receita e despesa.</text></g></g><g><path d=" M 393 589 C 393 573.5360256 480.9760368 561 589.5 561 C 698.0239632 561 786 573.5360256 786 589 C 786 604.4639744 698.0239632 617 589.5 617 C 480.9760368 617 393 604.4639744 393 589 Z" fill="#C0C0C0" fill-opacity="0.2" paint-order="stroke fill markers" stroke="none"/></g><g><path d=" M 386 582 C 386 566.5360256 473.9760368 554 582.5 554 C 691.0239632 554 779 566.5360256 779 582 C 779 597.4639744 691.0239632 610 582.5 610 C 473.9760368 610 386 597.4639744 386 582 Z" fill="#ffffff" paint-order="stroke fill markers" stroke="none"/></g><g><path d=" M 386 582 C 386 566.5360256 473.9760368 554 582.5 554 C 691.0239632 554 779 566.5360256 779 582 C 779 597.4639744 691.0239632 610 582.5 610 C 473.9760368 610 386 597.4639744 386 582 Z" fill="none" paint-order="fill stroke markers" stroke="#000000" stroke-dasharray="" stroke-miterlimit="10"/></g><g><g><path fill="none" stroke="none"/><text dominant-baseline="central" fill="#000000" font-family="Arial" font-size="13px" font-style="normal" font-weight="bold" stroke="none" text-anchor="middle" text-decoration="undefined" transform="matrix(1 0 0 1 -102 -30)" x="684.5" y="613">Gerar mensagem para envio via WhatsApp.</text></g></g><g><path d=" M 137 697 C 137 679.3268864 233.70648319999998 665 353 665 C 472.2935168 665 569 679.3268864 569 697 C 569 714.6731136 472.2935168 729 353 729 C 233.70648319999998 729 137 714.6731136 137 697 Z" fill="#C0C0C0" fill-opacity="0.2" paint-order="stroke fill markers" stroke="none"/></g><g><path d=" M 130 690 C 130 672.3268864 226.70648319999998 658 346 658 C 465.2935168 658 562 672.3268864 562 690 C 562 707.6731136 465.2935168 722 346 722 C 226.70648319999998 722 130 707.6731136 130 690 Z" fill="#ffffff" paint-order="stroke fill markers" stroke="none"/></g><g><path d=" M 130 690 C 130 672.3268864 226.70648319999998 658 346 658 C 465.2935168 658 562 672.3268864 562 690 C 562 707.6731136 465.2935168 722 346 722 C 226.70648319999998 722 130 707.6731136 130 690 Z" fill="none" paint-order="fill stroke markers" stroke="#000000" stroke-dasharray="" stroke-miterlimit="10"/></g><g><g><path fill="none" stroke="none"/><text dominant-baseline="central" fill="#000000" font-family="Arial" font-size="13px" font-style="normal" font-weight="bold" stroke="none" text-anchor="middle" text-decoration="undefined" transform="matrix(1 0 0 1 -102 -30)" x="448" y="721">Registrar e controlar de pagamentos recebidos.</text></g></g><g><path d=" M 304 171 L 289 345" fill="none" paint-order="fill stroke markers" stroke="#000000" stroke-dasharray="" stroke-miterlimit="10"/></g><g><path d=" M 545 155 L 313 361" fill="none" paint-order="fill stroke markers" stroke="#000000" stroke-dasharray="" stroke-miterlimit="10"/></g><g><path d=" M 555 275 L 313 374" fill="none" paint-order="fill stroke markers" stroke="#000000" stroke-dasharray="" stroke-miterlimit="10"/></g><g><path d=" M 489 420 L 313 391" fill="none" paint-order="fill stroke markers" stroke="#000000" stroke-dasharray="" stroke-miterlimit="10"/></g><g><path d=" M 538 553 L 313 405" fill="none" paint-order="fill stroke markers" stroke="#000000" stroke-dasharray="" stroke-miterlimit="10"/></g><g><path d=" M 339 657 L 293 427" fill="none" paint-order="fill stroke markers" stroke="#000000" stroke-dasharray="" stroke-miterlimit="10"/></g><g><path d=" M 73 45 C 73 33.954304 113.5182256 25 163.5 25 C 213.4817744 25 254 33.954304 254 45 C 254 56.04569599999999 213.4817744 65 163.5 65 C 113.5182256 65 73 56.04569599999999 73 45 Z" fill="#C0C0C0" fill-opacity="0.2" paint-order="stroke fill markers" stroke="none"/></g><g><path d=" M 66 38 C 66 26.954304 106.5182256 18 156.5 18 C 206.4817744 18 247 26.954304 247 38 C 247 49.04569599999999 206.4817744 58 156.5 58 C 106.5182256 58 66 49.04569599999999 66 38 Z" fill="#ffffff" paint-order="stroke fill markers" stroke="none"/></g><g><path d=" M 66 38 C 66 26.954304 106.5182256 18 156.5 18 C 206.4817744 18 247 26.954304 247 38 C 247 49.04569599999999 206.4817744 58 156.5 58 C 106.5182256 58 66 49.04569599999999 66 38 Z" fill="none" paint-order="fill stroke markers" stroke="#000000" stroke-dasharray="" stroke-miterlimit="10"/></g><g><g><path fill="none" stroke="none"/><text dominant-baseline="central" fill="#000000" font-family="Arial" font-size="13px" font-style="normal" font-weight="bold" stroke="none" text-anchor="middle" text-decoration="undefined" transform="matrix(1 0 0 1 -102 -30)" x="258.5" y="69">Gerenciar Clientes.</text></g></g><g><path d=" M 281 37 C 281 25.954304 331.5918176 17 394 17 C 456.4081824 17 507 25.954304 507 37 C 507 48.04569599999999 456.4081824 57 394 57 C 331.5918176 57 281 48.04569599999999 281 37 Z" fill="#C0C0C0" fill-opacity="0.2" paint-order="stroke fill markers" stroke="none"/></g><g><path d=" M 274 30 C 274 18.954304 324.5918176 10 387 10 C 449.4081824 10 500 18.954304 500 30 C 500 41.04569599999999 449.4081824 50 387 50 C 324.5918176 50 274 41.04569599999999 274 30 Z" fill="#ffffff" paint-order="stroke fill markers" stroke="none"/></g><g><path d=" M 274 30 C 274 18.954304 324.5918176 10 387 10 C 449.4081824 10 500 18.954304 500 30 C 500 41.04569599999999 449.4081824 50 387 50 C 324.5918176 50 274 41.04569599999999 274 30 Z" fill="none" paint-order="fill stroke markers" stroke="#000000" stroke-dasharray="" stroke-miterlimit="10"/></g><g><g><path fill="none" stroke="none"/><text dominant-baseline="central" fill="#000000" font-family="Arial" font-size="13px" font-style="normal" font-weight="bold" stroke="none" text-anchor="middle" text-decoration="undefined" transform="matrix(1 0 0 1 -102 -30)" x="489" y="61">Gerenciar Instrumentos.</text></g></g><g><path d=" M 186 59 L 264 113" fill="none" paint-order="fill stroke markers" stroke="#000000" stroke-dasharray="3" stroke-miterlimit="10"/></g><g><path d=" M 253.24822857305918 110.67633668901465 L 264 113 L 258.04042759863455 103.75427142985026" fill="none" paint-order="fill stroke markers" stroke="#000000" stroke-dasharray="" stroke-miterlimit="10"/></g><g><rect fill="#ffffff" height="13" stroke="none" transform="matrix(1 0 0 1 -102 -30)" width="53.49169921875" x="318" y="85"/></g><g><g><path fill="none" stroke="none"/><text dominant-baseline="central" fill="#000000" font-family="Arial" font-size="13px" font-style="normal" font-weight="normal" stroke="none" text-anchor="middle" text-decoration="undefined" transform="matrix(1 0 0 1 -102 -30)" x="344.745849609375" y="91.5">«extend»</text></g></g><g><path d=" M 372 51 L 327 113" fill="none" paint-order="fill stroke markers" stroke="#000000" stroke-dasharray="3" stroke-miterlimit="10"/></g><g><path d=" M 329.56274387393836 102.30269455252437 L 327 113 L 336.3762707940399 107.24799634937227" fill="none" paint-order="fill stroke markers" stroke="#000000" stroke-dasharray="" stroke-miterlimit="10"/></g><g><rect fill="#ffffff" height="13" stroke="none" transform="matrix(1 0 0 1 -102 -30)" width="53.49169921875" x="449" y="123"/></g><g><g><path fill="none" stroke="none"/><text dominant-baseline="central" fill="#000000" font-family="Arial" font-size="13px" font-style="normal" font-weight="normal" stroke="none" text-anchor="middle" text-decoration="undefined" transform="matrix(1 0 0 1 -102 -30)" x="475.745849609375" y="129.5">«extend»</text></g></g><g><path d=" M 17 234.5 C 17 224.835016 57.742083199999996 217 108 217 C 158.25791679999998 217 199 224.835016 199 234.5 C 199 244.164984 158.25791679999998 252 108 252 C 57.742083199999996 252 17 244.164984 17 234.5 Z" fill="#C0C0C0" fill-opacity="0.2" paint-order="stroke fill markers" stroke="none"/></g><g><path d=" M 10 227.5 C 10 217.835016 50.742083199999996 210 101 210 C 151.2579168 210 192 217.835016 192 227.5 C 192 237.164984 151.2579168 245 101 245 C 50.742083199999996 245 10 237.164984 10 227.5 Z" fill="#ffffff" paint-order="stroke fill markers" stroke="none"/></g><g><path d=" M 10 227.5 C 10 217.835016 50.742083199999996 210 101 210 C 151.2579168 210 192 217.835016 192 227.5 C 192 237.164984 151.2579168 245 101 245 C 50.742083199999996 245 10 237.164984 10 227.5 Z" fill="none" paint-order="fill stroke markers" stroke="#000000" stroke-dasharray="" stroke-miterlimit="10"/></g><g><g><path fill="none" stroke="none"/><text dominant-baseline="central" fill="#000000" font-family="Arial" font-size="13px" font-style="normal" font-weight="bold" stroke="none" text-anchor="middle" text-decoration="undefined" transform="matrix(1 0 0 1 -102 -30)" x="203" y="258.5">Gerenciar Estoque.</text></g></g><g><path d=" M 144 209 L 236 171" fill="none" paint-order="fill stroke markers" stroke="#000000" stroke-dasharray="3" stroke-miterlimit="10"/></g><g><path d=" M 228.21405778770753 178.77039920897516 L 236 171 L 225.00000549056847 170.98900943695432" fill="none" paint-order="fill stroke markers" stroke="#000000" stroke-dasharray="" stroke-miterlimit="10"/></g><g><rect fill="#ffffff" height="13" stroke="none" transform="matrix(1 0 0 1 -102 -30)" width="53.49169921875" x="254" y="186"/></g><g><g><path fill="none" stroke="none"/><text dominant-baseline="central" fill="#000000" font-family="Arial" font-size="13px" font-style="normal" font-weight="normal" stroke="none" text-anchor="middle" text-decoration="undefined" transform="matrix(1 0 0 1 -102 -30)" x="280.745849609375" y="192.5">«extend»</text></g></g><g><path d=" M 633 346.5 C 633 336.835016 684.7111056 329 748.5 329 C 812.2888944 329 864 336.835016 864 346.5 C 864 356.164984 812.2888944 364 748.5 364 C 684.7111056 364 633 356.164984 633 346.5 Z" fill="#C0C0C0" fill-opacity="0.2" paint-order="stroke fill markers" stroke="none"/></g><g><path d=" M 626 339.5 C 626 329.835016 677.7111056 322 741.5 322 C 805.2888944 322 857 329.835016 857 339.5 C 857 349.164984 805.2888944 357 741.5 357 C 677.7111056 357 626 349.164984 626 339.5 Z" fill="#ffffff" paint-order="stroke fill markers" stroke="none"/></g><g><path d=" M 626 339.5 C 626 329.835016 677.7111056 322 741.5 322 C 805.2888944 322 857 329.835016 857 339.5 C 857 349.164984 805.2888944 357 741.5 357 C 677.7111056 357 626 349.164984 626 339.5 Z" fill="none" paint-order="fill stroke markers" stroke="#000000" stroke-dasharray="" stroke-miterlimit="10"/></g><g><g><path fill="none" stroke="none"/><text dominant-baseline="central" fill="#000000" font-family="Arial" font-size="13px" font-style="normal" font-weight="bold" stroke="none" text-anchor="middle" text-decoration="undefined" transform="matrix(1 0 0 1 -102 -30)" x="843.5" y="370.5">Gerenciar Fornecedores.</text></g></g><g><path d=" M 719 358 L 659 409" fill="none" paint-order="fill stroke markers" stroke="#000000" stroke-dasharray="3" stroke-miterlimit="10"/></g><g><path d=" M 664.0170540235815 399.2107625973999 L 659 409 L 669.4696290716772 405.6255567716302" fill="none" paint-order="fill stroke markers" stroke="#000000" stroke-dasharray="" stroke-miterlimit="10"/></g><g><rect fill="#ffffff" height="13" stroke="none" transform="matrix(1 0 0 1 -102 -30)" width="53.49169921875" x="784" y="429"/></g><g><g><path fill="none" stroke="none"/><text dominant-baseline="central" fill="#000000" font-family="Arial" font-size="13px" font-style="normal" font-weight="normal" stroke="none" text-anchor="middle" text-decoration="undefined" transform="matrix(1 0 0 1 -102 -30)" x="810.745849609375" y="435.5">«extend»</text></g></g></g></svg>