<?xml version="1.0" encoding="UTF-8" standalone="no"?>
<svg
   height="820"
   version="1.1"
   width="620"
   id="svg426"
   sodipodi:docname="F_F02 - Finalizar Ordem de Serviço..svg"
   inkscape:version="1.1.1 (3bf5ae0d25, 2021-09-20)"
   xmlns:inkscape="http://www.inkscape.org/namespaces/inkscape"
   xmlns:sodipodi="http://sodipodi.sourceforge.net/DTD/sodipodi-0.dtd"
   xmlns="http://www.w3.org/2000/svg"
   xmlns:svg="http://www.w3.org/2000/svg">
  <sodipodi:namedview
     id="namedview428"
     pagecolor="#ffffff"
     bordercolor="#666666"
     borderopacity="1.0"
     inkscape:pageshadow="2"
     inkscape:pageopacity="0.0"
     inkscape:pagecheckerboard="0"
     showgrid="false"
     inkscape:zoom="0.71055608"
     inkscape:cx="182.9553"
     inkscape:cy="427.13025"
     inkscape:window-width="1920"
     inkscape:window-height="1009"
     inkscape:window-x="-8"
     inkscape:window-y="-8"
     inkscape:window-maximized="1"
     inkscape:current-layer="svg426" />
  <defs
     id="defs2" />
  <rect
     style="fill:#ffffff;stroke:#000000;stroke-width:2"
     id="rect1267"
     width="716.34033"
     height="882.40747"
     x="-52.071892"
     y="-23.924923" />
  <g
     id="g424"
     inkscape:export-filename="K:\ADS\SEMESTRE 3\Engenharia de Software II\Trabalho ERS\Diagramas de Atividade\F_F02 - Finalizar Ordem de Serviço..png"
     inkscape:export-xdpi="318.93689"
     inkscape:export-ydpi="318.93689">
    <g
       id="g6">
      <rect
         fill="#ffffff"
         height="21"
         stroke="none"
         transform="matrix(1 0 0 1 -62 -14)"
         width="256"
         x="72"
         y="24"
         id="rect4" />
    </g>
    <g
       id="g10">
      <path
         d=" M 10 10 L 266 10 L 266 31 L 10 31 L 10 10 Z Z"
         fill="none"
         paint-order="fill stroke markers"
         stroke="#000000"
         stroke-dasharray=""
         stroke-miterlimit="10"
         stroke-width="2"
         id="path8" />
    </g>
    <g
       id="g14">
      <path
         d=" M 10 810 L 10 10 L 266 10 L 266 810"
         fill="none"
         paint-order="fill stroke markers"
         stroke="#000000"
         stroke-dasharray=""
         stroke-miterlimit="10"
         stroke-width="2"
         id="path12" />
    </g>
    <g
       id="g22">
      <g
         id="g20">
        <path
           fill="none"
           stroke="none"
           id="path16" />
        <text
           dominant-baseline="text-before-edge"
           fill="#000000"
           font-family="Arial"
           font-size="13px"
           font-style="normal"
           font-weight="normal"
           stroke="none"
           text-anchor="middle"
           text-decoration="undefined"
           transform="matrix(1 0 0 1 -62 -14)"
           x="200"
           y="28"
           id="text18">Luthier</text>
      </g>
    </g>
    <g
       id="g26">
      <rect
         fill="#ffffff"
         height="21"
         stroke="none"
         transform="matrix(1 0 0 1 -62 -14)"
         width="344"
         x="328"
         y="24"
         id="rect24" />
    </g>
    <g
       id="g30">
      <path
         d=" M 266 10 L 610 10 L 610 31 L 266 31 L 266 10 Z Z"
         fill="none"
         paint-order="fill stroke markers"
         stroke="#000000"
         stroke-dasharray=""
         stroke-miterlimit="10"
         stroke-width="2"
         id="path28" />
    </g>
    <g
       id="g34">
      <path
         d=" M 266 810 L 266 10 L 610 10 L 610 810"
         fill="none"
         paint-order="fill stroke markers"
         stroke="#000000"
         stroke-dasharray=""
         stroke-miterlimit="10"
         stroke-width="2"
         id="path32" />
    </g>
    <g
       id="g42">
      <g
         id="g40">
        <path
           fill="none"
           stroke="none"
           id="path36" />
        <text
           dominant-baseline="text-before-edge"
           fill="#000000"
           font-family="Arial"
           font-size="13px"
           font-style="normal"
           font-weight="normal"
           stroke="none"
           text-anchor="middle"
           text-decoration="undefined"
           transform="matrix(1 0 0 1 -62 -14)"
           x="500"
           y="28"
           id="text38">Sistema</text>
      </g>
    </g>
    <g
       id="g46">
      <path
         d=" M 83 129 L 227.59716796875 129 Q 237.59716796875 129 237.59716796875 139 L 237.59716796875 160 Q 237.59716796875 170 227.59716796875 170 L 83 170 Q 73 170 73 160 L 73 139 Q 73 129 83 129 Z"
         fill="#C0C0C0"
         fill-opacity="0.2"
         paint-order="stroke fill markers"
         stroke="none"
         id="path44" />
    </g>
    <g
       id="g50">
      <path
         d=" M 76 122 L 220.59716796875 122 Q 230.59716796875 122 230.59716796875 132 L 230.59716796875 153 Q 230.59716796875 163 220.59716796875 163 L 76 163 Q 66 163 66 153 L 66 132 Q 66 122 76 122 Z"
         fill="#ffffff"
         paint-order="stroke fill markers"
         stroke="none"
         id="path48" />
    </g>
    <g
       id="g54">
      <path
         d=" M 76 122 L 220.59716796875 122 Q 230.59716796875 122 230.59716796875 132 L 230.59716796875 153 Q 230.59716796875 163 220.59716796875 163 L 76 163 Q 66 163 66 153 L 66 132 Q 66 122 76 122 Z"
         fill="none"
         paint-order="fill stroke markers"
         stroke="#000000"
         stroke-dasharray=""
         stroke-miterlimit="10"
         id="path52" />
    </g>
    <g
       id="g62">
      <g
         id="g60">
        <path
           fill="none"
           stroke="none"
           id="path56" />
        <text
           dominant-baseline="central"
           fill="#000000"
           font-family="Arial"
           font-size="13px"
           font-style="normal"
           font-weight="bold"
           stroke="none"
           text-anchor="middle"
           text-decoration="undefined"
           transform="matrix(1 0 0 1 -62 -14)"
           x="210.798583984375"
           y="149.5"
           id="text58">Autenticação no Sistema</text>
      </g>
    </g>
    <g
       id="g66">
      <path
         d=" M 331 145 L 554.33984375 145 Q 564.33984375 145 564.33984375 155 L 564.33984375 176 Q 564.33984375 186 554.33984375 186 L 331 186 Q 321 186 321 176 L 321 155 Q 321 145 331 145 Z"
         fill="#C0C0C0"
         fill-opacity="0.2"
         paint-order="stroke fill markers"
         stroke="none"
         id="path64" />
    </g>
    <g
       id="g70">
      <path
         d=" M 324 138 L 547.33984375 138 Q 557.33984375 138 557.33984375 148 L 557.33984375 169 Q 557.33984375 179 547.33984375 179 L 324 179 Q 314 179 314 169 L 314 148 Q 314 138 324 138 Z"
         fill="#ffffff"
         paint-order="stroke fill markers"
         stroke="none"
         id="path68" />
    </g>
    <g
       id="g74">
      <path
         d=" M 324 138 L 547.33984375 138 Q 557.33984375 138 557.33984375 148 L 557.33984375 169 Q 557.33984375 179 547.33984375 179 L 324 179 Q 314 179 314 169 L 314 148 Q 314 138 324 138 Z"
         fill="none"
         paint-order="fill stroke markers"
         stroke="#000000"
         stroke-dasharray=""
         stroke-miterlimit="10"
         id="path72" />
    </g>
    <g
       id="g82">
      <g
         id="g80">
        <path
           fill="none"
           stroke="none"
           id="path76" />
        <text
           dominant-baseline="central"
           fill="#000000"
           font-family="Arial"
           font-size="13px"
           font-style="normal"
           font-weight="bold"
           stroke="none"
           text-anchor="middle"
           text-decoration="undefined"
           transform="matrix(1 0 0 1 -62 -14)"
           x="498.169921875"
           y="165.5"
           id="text78">Acesso Módulo de Ordens de Serviço</text>
      </g>
    </g>
    <g
       id="g86">
      <path
         d=" M 232 147 L 313 151"
         fill="none"
         paint-order="fill stroke markers"
         stroke="#000000"
         stroke-dasharray=""
         stroke-miterlimit="10"
         id="path84" />
    </g>
    <g
       id="g90">
      <path
         d=" M 302.6420697288622 154.70314467692626 L 313 151 L 303.05731855345164 146.29435597899047"
         fill="none"
         paint-order="fill stroke markers"
         stroke="#000000"
         stroke-dasharray=""
         stroke-miterlimit="10"
         id="path88" />
    </g>
    <g
       id="g94">
      <path
         d=" M 115 201 L 188.0908203125 201 Q 198.0908203125 201 198.0908203125 211 L 198.0908203125 232 Q 198.0908203125 242 188.0908203125 242 L 115 242 Q 105 242 105 232 L 105 211 Q 105 201 115 201 Z"
         fill="#C0C0C0"
         fill-opacity="0.2"
         paint-order="stroke fill markers"
         stroke="none"
         id="path92" />
    </g>
    <g
       id="g98">
      <path
         d=" M 108 194 L 181.0908203125 194 Q 191.0908203125 194 191.0908203125 204 L 191.0908203125 225 Q 191.0908203125 235 181.0908203125 235 L 108 235 Q 98 235 98 225 L 98 204 Q 98 194 108 194 Z"
         fill="#ffffff"
         paint-order="stroke fill markers"
         stroke="none"
         id="path96" />
    </g>
    <g
       id="g102">
      <path
         d=" M 108 194 L 181.0908203125 194 Q 191.0908203125 194 191.0908203125 204 L 191.0908203125 225 Q 191.0908203125 235 181.0908203125 235 L 108 235 Q 98 235 98 225 L 98 204 Q 98 194 108 194 Z"
         fill="none"
         paint-order="fill stroke markers"
         stroke="#000000"
         stroke-dasharray=""
         stroke-miterlimit="10"
         id="path100" />
    </g>
    <g
       id="g110">
      <g
         id="g108">
        <path
           fill="none"
           stroke="none"
           id="path104" />
        <text
           dominant-baseline="central"
           fill="#000000"
           font-family="Arial"
           font-size="13px"
           font-style="normal"
           font-weight="bold"
           stroke="none"
           text-anchor="middle"
           text-decoration="undefined"
           transform="matrix(1 0 0 1 -62 -14)"
           x="207.04541015625"
           y="221.5"
           id="text106">Seleciona OS</text>
      </g>
    </g>
    <g
       id="g114">
      <path
         d=" M 321 180 L 192 205"
         fill="none"
         paint-order="fill stroke markers"
         stroke="#000000"
         stroke-dasharray=""
         stroke-miterlimit="10"
         id="path112" />
    </g>
    <g
       id="g118">
      <path
         d=" M 201.17614700197947 198.93383760536673 L 192 205 L 202.7779403352883 207.19909120524028"
         fill="none"
         paint-order="fill stroke markers"
         stroke="#000000"
         stroke-dasharray=""
         stroke-miterlimit="10"
         id="path116" />
    </g>
    <g
       id="g122">
      <path
         d=" M 339 257 L 564.5107421875 257 Q 574.5107421875 257 574.5107421875 267 L 574.5107421875 288 Q 574.5107421875 298 564.5107421875 298 L 339 298 Q 329 298 329 288 L 329 267 Q 329 257 339 257 Z"
         fill="#C0C0C0"
         fill-opacity="0.2"
         paint-order="stroke fill markers"
         stroke="none"
         id="path120" />
    </g>
    <g
       id="g126">
      <path
         d=" M 332 250 L 557.5107421875 250 Q 567.5107421875 250 567.5107421875 260 L 567.5107421875 281 Q 567.5107421875 291 557.5107421875 291 L 332 291 Q 322 291 322 281 L 322 260 Q 322 250 332 250 Z"
         fill="#ffffff"
         paint-order="stroke fill markers"
         stroke="none"
         id="path124" />
    </g>
    <g
       id="g130">
      <path
         d=" M 332 250 L 557.5107421875 250 Q 567.5107421875 250 567.5107421875 260 L 567.5107421875 281 Q 567.5107421875 291 557.5107421875 291 L 332 291 Q 322 291 322 281 L 322 260 Q 322 250 332 250 Z"
         fill="none"
         paint-order="fill stroke markers"
         stroke="#000000"
         stroke-dasharray=""
         stroke-miterlimit="10"
         id="path128" />
    </g>
    <g
       id="g138">
      <g
         id="g136">
        <path
           fill="none"
           stroke="none"
           id="path132" />
        <text
           dominant-baseline="central"
           fill="#000000"
           font-family="Arial"
           font-size="13px"
           font-style="normal"
           font-weight="bold"
           stroke="none"
           text-anchor="middle"
           text-decoration="undefined"
           transform="matrix(1 0 0 1 -62 -14)"
           x="507.25537109375"
           y="277.5"
           id="text134">Exibe Formulário com Detalhes Finais</text>
      </g>
    </g>
    <g
       id="g142">
      <path
         d=" M 192 223 L 332 249"
         fill="none"
         paint-order="fill stroke markers"
         stroke="#000000"
         stroke-dasharray=""
         stroke-miterlimit="10"
         id="path140" />
    </g>
    <g
       id="g146">
      <path
         d=" M 321.2395474694851 251.28312534446445 L 332 249 L 322.7767976336673 243.0056244604067"
         fill="none"
         paint-order="fill stroke markers"
         stroke="#000000"
         stroke-dasharray=""
         stroke-miterlimit="10"
         id="path144" />
    </g>
    <g
       id="g150">
      <path
         d=" M 67 305 L 250.654296875 305 Q 260.654296875 305 260.654296875 315 L 260.654296875 336 Q 260.654296875 346 250.654296875 346 L 67 346 Q 57 346 57 336 L 57 315 Q 57 305 67 305 Z"
         fill="#C0C0C0"
         fill-opacity="0.2"
         paint-order="stroke fill markers"
         stroke="none"
         id="path148" />
    </g>
    <g
       id="g154">
      <path
         d=" M 60 298 L 243.654296875 298 Q 253.654296875 298 253.654296875 308 L 253.654296875 329 Q 253.654296875 339 243.654296875 339 L 60 339 Q 50 339 50 329 L 50 308 Q 50 298 60 298 Z"
         fill="#ffffff"
         paint-order="stroke fill markers"
         stroke="none"
         id="path152" />
    </g>
    <g
       id="g158">
      <path
         d=" M 60 298 L 243.654296875 298 Q 253.654296875 298 253.654296875 308 L 253.654296875 329 Q 253.654296875 339 243.654296875 339 L 60 339 Q 50 339 50 329 L 50 308 Q 50 298 60 298 Z"
         fill="none"
         paint-order="fill stroke markers"
         stroke="#000000"
         stroke-dasharray=""
         stroke-miterlimit="10"
         id="path156" />
    </g>
    <g
       id="g166">
      <g
         id="g164">
        <path
           fill="none"
           stroke="none"
           id="path160" />
        <text
           dominant-baseline="central"
           fill="#000000"
           font-family="Arial"
           font-size="13px"
           font-style="normal"
           font-weight="bold"
           stroke="none"
           text-anchor="middle"
           text-decoration="undefined"
           transform="matrix(1 0 0 1 -62 -14)"
           x="214.3271484375"
           y="325.5"
           id="text162">Preenche Campos Necessários</text>
      </g>
    </g>
    <g
       id="g170">
      <path
         d=" M 321 290 L 255 301"
         fill="none"
         paint-order="fill stroke markers"
         stroke="#000000"
         stroke-dasharray=""
         stroke-miterlimit="10"
         id="path168" />
    </g>
    <g
       id="g174">
      <path
         d=" M 264.33236027330923 295.1770238082953 L 255 301 L 265.7164411855751 303.4815092818907"
         fill="none"
         paint-order="fill stroke markers"
         stroke="#000000"
         stroke-dasharray=""
         stroke-miterlimit="10"
         id="path172" />
    </g>
    <g
       id="g178">
      <path
         d=" M 83 385 L 218.24072265625 385 Q 228.24072265625 385 228.24072265625 395 L 228.24072265625 416 Q 228.24072265625 426 218.24072265625 426 L 83 426 Q 73 426 73 416 L 73 395 Q 73 385 83 385 Z"
         fill="#C0C0C0"
         fill-opacity="0.2"
         paint-order="stroke fill markers"
         stroke="none"
         id="path176" />
    </g>
    <g
       id="g182">
      <path
         d=" M 76 378 L 211.24072265625 378 Q 221.24072265625 378 221.24072265625 388 L 221.24072265625 409 Q 221.24072265625 419 211.24072265625 419 L 76 419 Q 66 419 66 409 L 66 388 Q 66 378 76 378 Z"
         fill="#ffffff"
         paint-order="stroke fill markers"
         stroke="none"
         id="path180" />
    </g>
    <g
       id="g186">
      <path
         d=" M 76 378 L 211.24072265625 378 Q 221.24072265625 378 221.24072265625 388 L 221.24072265625 409 Q 221.24072265625 419 211.24072265625 419 L 76 419 Q 66 419 66 409 L 66 388 Q 66 378 76 378 Z"
         fill="none"
         paint-order="fill stroke markers"
         stroke="#000000"
         stroke-dasharray=""
         stroke-miterlimit="10"
         id="path184" />
    </g>
    <g
       id="g194">
      <g
         id="g192">
        <path
           fill="none"
           stroke="none"
           id="path188" />
        <text
           dominant-baseline="central"
           fill="#000000"
           font-family="Arial"
           font-size="13px"
           font-style="normal"
           font-weight="bold"
           stroke="none"
           text-anchor="middle"
           text-decoration="undefined"
           transform="matrix(1 0 0 1 -62 -14)"
           x="206.120361328125"
           y="405.5"
           id="text190">Verifica as Informações</text>
      </g>
    </g>
    <g
       id="g198">
      <path
         d=" M 149 340 L 145 377"
         fill="none"
         paint-order="fill stroke markers"
         stroke="#000000"
         stroke-dasharray=""
         stroke-miterlimit="10"
         id="path196" />
    </g>
    <g
       id="g202">
      <path
         d=" M 141.9071708034202 366.4437503079558 L 145 377 L 150.27743524318956 367.3486437609038"
         fill="none"
         paint-order="fill stroke markers"
         stroke="#000000"
         stroke-dasharray=""
         stroke-miterlimit="10"
         id="path200" />
    </g>
    <g
       id="g206">
      <path
         d=" M 222 409 L 353 426"
         fill="none"
         paint-order="fill stroke markers"
         stroke="#000000"
         stroke-dasharray=""
         stroke-miterlimit="10"
         id="path204" />
    </g>
    <g
       id="g210">
      <path
         d=" M 342.38010076579934 428.8666601220626 L 353 426 L 343.46356242431136 420.51763204764643"
         fill="none"
         paint-order="fill stroke markers"
         stroke="#000000"
         stroke-dasharray=""
         stroke-miterlimit="10"
         id="path208" />
    </g>
    <g
       id="g214">
      <path
         d=" M 371 425 L 525.71533203125 425 Q 535.71533203125 425 535.71533203125 435 L 535.71533203125 456 Q 535.71533203125 466 525.71533203125 466 L 371 466 Q 361 466 361 456 L 361 435 Q 361 425 371 425 Z"
         fill="#C0C0C0"
         fill-opacity="0.2"
         paint-order="stroke fill markers"
         stroke="none"
         id="path212" />
    </g>
    <g
       id="g218">
      <path
         d=" M 364 418 L 518.71533203125 418 Q 528.71533203125 418 528.71533203125 428 L 528.71533203125 449 Q 528.71533203125 459 518.71533203125 459 L 364 459 Q 354 459 354 449 L 354 428 Q 354 418 364 418 Z"
         fill="#ffffff"
         paint-order="stroke fill markers"
         stroke="none"
         id="path216" />
    </g>
    <g
       id="g222">
      <path
         d=" M 364 418 L 518.71533203125 418 Q 528.71533203125 418 528.71533203125 428 L 528.71533203125 449 Q 528.71533203125 459 518.71533203125 459 L 364 459 Q 354 459 354 449 L 354 428 Q 354 418 364 418 Z"
         fill="none"
         paint-order="fill stroke markers"
         stroke="#000000"
         stroke-dasharray=""
         stroke-miterlimit="10"
         id="path220" />
    </g>
    <g
       id="g230">
      <g
         id="g228">
        <path
           fill="none"
           stroke="none"
           id="path224" />
        <text
           dominant-baseline="central"
           fill="#000000"
           font-family="Arial"
           font-size="13px"
           font-style="normal"
           font-weight="bold"
           stroke="none"
           text-anchor="middle"
           text-decoration="undefined"
           transform="matrix(1 0 0 1 -62 -14)"
           x="503.857666015625"
           y="445.5"
           id="text226">Marca OS como Finalizada</text>
      </g>
    </g>
    <g
       id="g234">
      <path
         d=" M 395 513 L 504.20263671875 513 Q 514.20263671875 513 514.20263671875 523 L 514.20263671875 544 Q 514.20263671875 554 504.20263671875 554 L 395 554 Q 385 554 385 544 L 385 523 Q 385 513 395 513 Z"
         fill="#C0C0C0"
         fill-opacity="0.2"
         paint-order="stroke fill markers"
         stroke="none"
         id="path232" />
    </g>
    <g
       id="g238">
      <path
         d=" M 388 506 L 497.20263671875 506 Q 507.20263671875 506 507.20263671875 516 L 507.20263671875 537 Q 507.20263671875 547 497.20263671875 547 L 388 547 Q 378 547 378 537 L 378 516 Q 378 506 388 506 Z"
         fill="#ffffff"
         paint-order="stroke fill markers"
         stroke="none"
         id="path236" />
    </g>
    <g
       id="g242">
      <path
         d=" M 388 506 L 497.20263671875 506 Q 507.20263671875 506 507.20263671875 516 L 507.20263671875 537 Q 507.20263671875 547 497.20263671875 547 L 388 547 Q 378 547 378 537 L 378 516 Q 378 506 388 506 Z"
         fill="none"
         paint-order="fill stroke markers"
         stroke="#000000"
         stroke-dasharray=""
         stroke-miterlimit="10"
         id="path240" />
    </g>
    <g
       id="g250">
      <g
         id="g248">
        <path
           fill="none"
           stroke="none"
           id="path244" />
        <text
           dominant-baseline="central"
           fill="#000000"
           font-family="Arial"
           font-size="13px"
           font-style="normal"
           font-weight="bold"
           stroke="none"
           text-anchor="middle"
           text-decoration="undefined"
           transform="matrix(1 0 0 1 -62 -14)"
           x="505.101318359375"
           y="533.5"
           id="text246">Gera Faturamentos</text>
      </g>
    </g>
    <g
       id="g254">
      <path
         d=" M 441 460 L 442 505"
         fill="none"
         paint-order="fill stroke markers"
         stroke="#000000"
         stroke-dasharray=""
         stroke-miterlimit="10"
         id="path252" />
    </g>
    <g
       id="g258">
      <path
         d=" M 437.56573976885824 494.9333552659034 L 442 505 L 445.98269727628934 494.74631176573826"
         fill="none"
         paint-order="fill stroke markers"
         stroke="#000000"
         stroke-dasharray=""
         stroke-miterlimit="10"
         id="path256" />
    </g>
    <g
       id="g262">
      <path
         d=" M 43 537 L 254.7998046875 537 Q 264.7998046875 537 264.7998046875 547 L 264.7998046875 583 Q 264.7998046875 593 254.7998046875 593 L 43 593 Q 33 593 33 583 L 33 547 Q 33 537 43 537 Z"
         fill="#C0C0C0"
         fill-opacity="0.2"
         paint-order="stroke fill markers"
         stroke="none"
         id="path260" />
    </g>
    <g
       id="g266">
      <path
         d=" M 36 530 L 247.7998046875 530 Q 257.7998046875 530 257.7998046875 540 L 257.7998046875 576 Q 257.7998046875 586 247.7998046875 586 L 36 586 Q 26 586 26 576 L 26 540 Q 26 530 36 530 Z"
         fill="#ffffff"
         paint-order="stroke fill markers"
         stroke="none"
         id="path264" />
    </g>
    <g
       id="g270">
      <path
         d=" M 36 530 L 247.7998046875 530 Q 257.7998046875 530 257.7998046875 540 L 257.7998046875 576 Q 257.7998046875 586 247.7998046875 586 L 36 586 Q 26 586 26 576 L 26 540 Q 26 530 36 530 Z"
         fill="none"
         paint-order="fill stroke markers"
         stroke="#000000"
         stroke-dasharray=""
         stroke-miterlimit="10"
         id="path268" />
    </g>
    <g
       id="g278">
      <g
         id="g276">
        <path
           fill="none"
           stroke="none"
           id="path272" />
        <text
           dominant-baseline="central"
           fill="#000000"
           font-family="Arial"
           font-size="13px"
           font-style="normal"
           font-weight="bold"
           stroke="none"
           text-anchor="middle"
           text-decoration="undefined"
           transform="matrix(1 0 0 1 -62 -14)"
           x="204.39990234375"
           y="557.5"
           id="text274">Informa deseja enviar OS ao Cliente</text>
      </g>
    </g>
    <g
       id="g282">
      <path
         d=" M 377 533 L 259 545"
         fill="none"
         paint-order="fill stroke markers"
         stroke="#000000"
         stroke-dasharray=""
         stroke-miterlimit="10"
         id="path280" />
    </g>
    <g
       id="g286">
      <path
         d=" M 268.68463854965717 539.7838926235655 L 259 545 L 269.5364184890772 548.1597286945292"
         fill="none"
         paint-order="fill stroke markers"
         stroke="#000000"
         stroke-dasharray=""
         stroke-miterlimit="10"
         id="path284" />
    </g>
    <g
       id="g290">
      <path
         d=" M 395 617 L 507.814453125 617 Q 517.814453125 617 517.814453125 627 L 517.814453125 648 Q 517.814453125 658 507.814453125 658 L 395 658 Q 385 658 385 648 L 385 627 Q 385 617 395 617 Z"
         fill="#C0C0C0"
         fill-opacity="0.2"
         paint-order="stroke fill markers"
         stroke="none"
         id="path288" />
    </g>
    <g
       id="g294">
      <path
         d=" M 388 610 L 500.814453125 610 Q 510.814453125 610 510.814453125 620 L 510.814453125 641 Q 510.814453125 651 500.814453125 651 L 388 651 Q 378 651 378 641 L 378 620 Q 378 610 388 610 Z"
         fill="#ffffff"
         paint-order="stroke fill markers"
         stroke="none"
         id="path292" />
    </g>
    <g
       id="g298">
      <path
         d=" M 388 610 L 500.814453125 610 Q 510.814453125 610 510.814453125 620 L 510.814453125 641 Q 510.814453125 651 500.814453125 651 L 388 651 Q 378 651 378 641 L 378 620 Q 378 610 388 610 Z"
         fill="none"
         paint-order="fill stroke markers"
         stroke="#000000"
         stroke-dasharray=""
         stroke-miterlimit="10"
         id="path296" />
    </g>
    <g
       id="g306">
      <g
         id="g304">
        <path
           fill="none"
           stroke="none"
           id="path300" />
        <text
           dominant-baseline="central"
           fill="#000000"
           font-family="Arial"
           font-size="13px"
           font-style="normal"
           font-weight="bold"
           stroke="none"
           text-anchor="middle"
           text-decoration="undefined"
           transform="matrix(1 0 0 1 -62 -14)"
           x="506.9072265625"
           y="637.5"
           id="text302">Envia OS ao Cliente</text>
      </g>
    </g>
    <g
       id="g310">
      <path
         d=" M 137 634.5 L 148.5 625 L 160 634.5 L 148.5 644 L 137 634.5"
         fill="#C0C0C0"
         fill-opacity="0.2"
         paint-order="stroke fill markers"
         stroke="none"
         id="path308" />
    </g>
    <g
       id="g314">
      <path
         d=" M 130 627.5 L 141.5 618 L 153 627.5 L 141.5 637 L 130 627.5"
         fill="#ffffff"
         paint-order="stroke fill markers"
         stroke="none"
         id="path312" />
    </g>
    <g
       id="g318">
      <path
         d=" M 130 627.5 L 141.5 618 L 153 627.5 L 141.5 637 L 130 627.5 L 130 627.5"
         fill="none"
         paint-order="fill stroke markers"
         stroke="#000000"
         stroke-dasharray=""
         stroke-miterlimit="10"
         id="path316" />
    </g>
    <g
       id="g322">
      <path
         d=" M 141 587 L 141 617"
         fill="none"
         paint-order="fill stroke markers"
         stroke="#000000"
         stroke-dasharray=""
         stroke-miterlimit="10"
         id="path320" />
    </g>
    <g
       id="g326">
      <path
         d=" M 136.790482243984 606.8373251423759 L 141 617 L 145.209517756016 606.8373251423759"
         fill="none"
         paint-order="fill stroke markers"
         stroke="#000000"
         stroke-dasharray=""
         stroke-miterlimit="10"
         id="path324" />
    </g>
    <g
       id="g330">
      <path
         d=" M 154 627 L 377 629"
         fill="none"
         paint-order="fill stroke markers"
         stroke="#000000"
         stroke-dasharray=""
         stroke-miterlimit="10"
         id="path328" />
    </g>
    <g
       id="g334">
      <path
         d=" M 366.7999818357929 633.1182070673833 L 377 629 L 366.87548584418613 624.6995101315403"
         fill="none"
         paint-order="fill stroke markers"
         stroke="#000000"
         stroke-dasharray=""
         stroke-miterlimit="10"
         id="path332" />
    </g>
    <g
       id="g338">
      <rect
         fill="#ffffff"
         height="13"
         stroke="none"
         transform="matrix(1 0 0 1 -62 -14)"
         width="80.92626953125"
         x="287"
         y="621"
         id="rect336" />
    </g>
    <g
       id="g346">
      <g
         id="g344">
        <path
           fill="none"
           stroke="none"
           id="path340" />
        <text
           dominant-baseline="central"
           fill="#000000"
           font-family="Arial"
           font-size="13px"
           font-style="normal"
           font-weight="normal"
           stroke="none"
           text-anchor="middle"
           text-decoration="undefined"
           transform="matrix(1 0 0 1 -62 -14)"
           x="327.463134765625"
           y="627.5"
           id="text342">Deseja Enviar</text>
      </g>
    </g>
    <g
       id="g350">
      <path
         d=" M 441 714.5 L 452.5 705 L 464 714.5 L 452.5 724 L 441 714.5"
         fill="#C0C0C0"
         fill-opacity="0.2"
         paint-order="stroke fill markers"
         stroke="none"
         id="path348" />
    </g>
    <g
       id="g354">
      <path
         d=" M 434 707.5 L 445.5 698 L 457 707.5 L 445.5 717 L 434 707.5"
         fill="#ffffff"
         paint-order="stroke fill markers"
         stroke="none"
         id="path352" />
    </g>
    <g
       id="g358">
      <path
         d=" M 434 707.5 L 445.5 698 L 457 707.5 L 445.5 717 L 434 707.5 L 434 707.5"
         fill="none"
         paint-order="fill stroke markers"
         stroke="#000000"
         stroke-dasharray=""
         stroke-miterlimit="10"
         id="path356" />
    </g>
    <g
       id="g362">
      <path
         d=" M 444 652 L 445 697"
         fill="none"
         paint-order="fill stroke markers"
         stroke="#000000"
         stroke-dasharray=""
         stroke-miterlimit="10"
         id="path360" />
    </g>
    <g
       id="g366">
      <path
         d=" M 440.56573976885824 686.9333552659034 L 445 697 L 448.98269727628934 686.7463117657383"
         fill="none"
         paint-order="fill stroke markers"
         stroke="#000000"
         stroke-dasharray=""
         stroke-miterlimit="10"
         id="path364" />
    </g>
    <g
       id="g370">
      <path
         d=" M 154 630 L 433 704"
         fill="none"
         paint-order="fill stroke markers"
         stroke="#000000"
         stroke-dasharray=""
         stroke-miterlimit="10"
         id="path368" />
    </g>
    <g
       id="g374">
      <path
         d=" M 422.0977827229214 705.4634406183269 L 433 704 L 424.25615944832583 697.3257770184914"
         fill="none"
         paint-order="fill stroke markers"
         stroke="#000000"
         stroke-dasharray=""
         stroke-miterlimit="10"
         id="path372" />
    </g>
    <g
       id="g378">
      <rect
         fill="#ffffff"
         height="13"
         stroke="none"
         transform="matrix(1 0 0 1 -62 -14)"
         width="108.38623046875"
         x="304"
         y="660"
         id="rect376" />
    </g>
    <g
       id="g386">
      <g
         id="g384">
        <path
           fill="none"
           stroke="none"
           id="path380" />
        <text
           dominant-baseline="central"
           fill="#000000"
           font-family="Arial"
           font-size="13px"
           font-style="normal"
           font-weight="normal"
           stroke="none"
           text-anchor="middle"
           text-decoration="undefined"
           transform="matrix(1 0 0 1 -62 -14)"
           x="358.193115234375"
           y="666.5"
           id="text382">Não Deseja Enviar</text>
      </g>
    </g>
    <g
       id="g390">
      <path
         d=" M 441 790 C 441 782.8202976 446.8202976 777 454 777 C 461.1797024 777 467 782.8202976 467 790 C 467 797.1797024 461.1797024 803 454 803 C 446.8202976 803 441 797.1797024 441 790 Z"
         fill="#C0C0C0"
         fill-opacity="0.2"
         paint-order="stroke fill markers"
         stroke="none"
         id="path388" />
    </g>
    <g
       id="g394">
      <path
         d=" M 434 783 C 434 775.8202976 439.8202976 770 447 770 C 454.1797024 770 460 775.8202976 460 783 C 460 790.1797024 454.1797024 796 447 796 C 439.8202976 796 434 790.1797024 434 783 Z"
         fill="none"
         paint-order="fill stroke markers"
         stroke="#000000"
         stroke-dasharray=""
         stroke-miterlimit="10"
         id="path392" />
    </g>
    <g
       id="g398">
      <path
         d=" M 439 783 C 439 778.5817216 442.5817216 775 447 775 C 451.41827839999996 775 455 778.5817216 455 783 C 455 787.4182784 451.41827839999996 791 447 791 C 442.5817216 791 439 787.4182784 439 783 Z"
         fill="#000000"
         paint-order="stroke fill markers"
         stroke="none"
         id="path396" />
    </g>
    <g
       id="g402">
      <path
         d=" M 445 718 L 447 769"
         fill="none"
         paint-order="fill stroke markers"
         stroke="#000000"
         stroke-dasharray=""
         stroke-miterlimit="10"
         id="path400" />
    </g>
    <g
       id="g406">
      <path
         d=" M 442.39548518758045 759.0100829161495 L 447 769 L 450.8080544655463 758.6801782385821"
         fill="none"
         paint-order="fill stroke markers"
         stroke="#000000"
         stroke-dasharray=""
         stroke-miterlimit="10"
         id="path404" />
    </g>
    <g
       id="g410">
      <path
         d=" M 137 67 C 137 61.477152000000004 141.477152 57 147 57 C 152.522848 57 157 61.477152000000004 157 67 C 157 72.522848 152.522848 77 147 77 C 141.477152 77 137 72.522848 137 67 Z"
         fill="#C0C0C0"
         fill-opacity="0.2"
         paint-order="stroke fill markers"
         stroke="none"
         id="path408" />
    </g>
    <g
       id="g414">
      <path
         d=" M 130 60 C 130 54.477152000000004 134.477152 50 140 50 C 145.522848 50 150 54.477152000000004 150 60 C 150 65.522848 145.522848 70 140 70 C 134.477152 70 130 65.522848 130 60 Z"
         fill="#000000"
         paint-order="stroke fill markers"
         stroke="none"
         id="path412" />
    </g>
    <g
       id="g418">
      <path
         d=" M 141 71 L 146 121"
         fill="none"
         paint-order="fill stroke markers"
         stroke="#000000"
         stroke-dasharray=""
         stroke-miterlimit="10"
         id="path416" />
    </g>
    <g
       id="g422">
      <path
         d=" M 140.80014933638 111.30662323666047 L 146 121 L 149.1774027765504 110.46889789264344"
         fill="none"
         paint-order="fill stroke markers"
         stroke="#000000"
         stroke-dasharray=""
         stroke-miterlimit="10"
         id="path420" />
    </g>
  </g>
</svg>
