<?xml version="1.0" encoding="UTF-8" standalone="no"?>
<svg
   height="628"
   version="1.1"
   width="580"
   id="svg270"
   sodipodi:docname="F_F05 - Gerar mensagem para envio via WhatsApp.svg"
   inkscape:version="1.1.1 (3bf5ae0d25, 2021-09-20)"
   xmlns:inkscape="http://www.inkscape.org/namespaces/inkscape"
   xmlns:sodipodi="http://sodipodi.sourceforge.net/DTD/sodipodi-0.dtd"
   xmlns="http://www.w3.org/2000/svg"
   xmlns:svg="http://www.w3.org/2000/svg">
  <sodipodi:namedview
     id="namedview272"
     pagecolor="#ffffff"
     bordercolor="#666666"
     borderopacity="1.0"
     inkscape:pageshadow="2"
     inkscape:pageopacity="0.0"
     inkscape:pagecheckerboard="0"
     showgrid="false"
     inkscape:zoom="0.65605096"
     inkscape:cx="509.1068"
     inkscape:cy="462.6165"
     inkscape:window-width="1920"
     inkscape:window-height="1009"
     inkscape:window-x="-8"
     inkscape:window-y="-8"
     inkscape:window-maximized="1"
     inkscape:current-layer="svg270" />
  <defs
     id="defs2" />
  <rect
     style="fill:#ffffff;stroke:#000000;stroke-width:2"
     id="rect1111"
     width="698.11652"
     height="728.60193"
     x="-42.679611"
     y="-33.533981" />
  <g
     id="g268"
     inkscape:export-filename="K:\ADS\SEMESTRE 3\Engenharia de Software II\Trabalho ERS\Diagramas de Atividade\F_F05 - Gerar mensagem para envio via WhatsApp.png"
     inkscape:export-xdpi="341.63702"
     inkscape:export-ydpi="341.63702">
    <g
       id="g6">
      <rect
         fill="#ffffff"
         height="21"
         stroke="none"
         transform="matrix(1 0 0 1 -62 -22)"
         width="224"
         x="72"
         y="32"
         id="rect4" />
    </g>
    <g
       id="g10">
      <path
         d=" M 10 10 L 234 10 L 234 31 L 10 31 L 10 10 Z Z"
         fill="none"
         paint-order="fill stroke markers"
         stroke="#000000"
         stroke-dasharray=""
         stroke-miterlimit="10"
         stroke-width="2"
         id="path8" />
    </g>
    <g
       id="g14">
      <path
         d=" M 10 618 L 10 10 L 234 10 L 234 618"
         fill="none"
         paint-order="fill stroke markers"
         stroke="#000000"
         stroke-dasharray=""
         stroke-miterlimit="10"
         stroke-width="2"
         id="path12" />
    </g>
    <g
       id="g22">
      <g
         id="g20">
        <path
           fill="none"
           stroke="none"
           id="path16" />
        <text
           dominant-baseline="text-before-edge"
           fill="#000000"
           font-family="Arial"
           font-size="13px"
           font-style="normal"
           font-weight="normal"
           stroke="none"
           text-anchor="middle"
           text-decoration="undefined"
           transform="matrix(1 0 0 1 -62 -22)"
           x="184"
           y="36"
           id="text18">Luthier</text>
      </g>
    </g>
    <g
       id="g26">
      <rect
         fill="#ffffff"
         height="21"
         stroke="none"
         transform="matrix(1 0 0 1 -62 -22)"
         width="336"
         x="296"
         y="32"
         id="rect24" />
    </g>
    <g
       id="g30">
      <path
         d=" M 234 10 L 570 10 L 570 31 L 234 31 L 234 10 Z Z"
         fill="none"
         paint-order="fill stroke markers"
         stroke="#000000"
         stroke-dasharray=""
         stroke-miterlimit="10"
         stroke-width="2"
         id="path28" />
    </g>
    <g
       id="g34">
      <path
         d=" M 234 618 L 234 10 L 570 10 L 570 618"
         fill="none"
         paint-order="fill stroke markers"
         stroke="#000000"
         stroke-dasharray=""
         stroke-miterlimit="10"
         stroke-width="2"
         id="path32" />
    </g>
    <g
       id="g42">
      <g
         id="g40">
        <path
           fill="none"
           stroke="none"
           id="path36" />
        <text
           dominant-baseline="text-before-edge"
           fill="#000000"
           font-family="Arial"
           font-size="13px"
           font-style="normal"
           font-weight="normal"
           stroke="none"
           text-anchor="middle"
           text-decoration="undefined"
           transform="matrix(1 0 0 1 -62 -22)"
           x="464"
           y="36"
           id="text38">Sistema</text>
      </g>
    </g>
    <g
       id="g46">
      <path
         d=" M 121 67 C 121 61.477152000000004 125.47715199999999 57 131 57 C 136.522848 57 141 61.477152000000004 141 67 C 141 72.522848 136.522848 77 131 77 C 125.47715199999999 77 121 72.522848 121 67 Z"
         fill="#C0C0C0"
         fill-opacity="0.2"
         paint-order="stroke fill markers"
         stroke="none"
         id="path44" />
    </g>
    <g
       id="g50">
      <path
         d=" M 114 60 C 114 54.477152000000004 118.47715199999999 50 124 50 C 129.522848 50 134 54.477152000000004 134 60 C 134 65.522848 129.522848 70 124 70 C 118.47715199999999 70 114 65.522848 114 60 Z"
         fill="#000000"
         paint-order="stroke fill markers"
         stroke="none"
         id="path48" />
    </g>
    <g
       id="g54">
      <path
         d=" M 59 113 L 203.59716796875 113 Q 213.59716796875 113 213.59716796875 123 L 213.59716796875 144 Q 213.59716796875 154 203.59716796875 154 L 59 154 Q 49 154 49 144 L 49 123 Q 49 113 59 113 Z"
         fill="#C0C0C0"
         fill-opacity="0.2"
         paint-order="stroke fill markers"
         stroke="none"
         id="path52" />
    </g>
    <g
       id="g58">
      <path
         d=" M 52 106 L 196.59716796875 106 Q 206.59716796875 106 206.59716796875 116 L 206.59716796875 137 Q 206.59716796875 147 196.59716796875 147 L 52 147 Q 42 147 42 137 L 42 116 Q 42 106 52 106 Z"
         fill="#ffffff"
         paint-order="stroke fill markers"
         stroke="none"
         id="path56" />
    </g>
    <g
       id="g62">
      <path
         d=" M 52 106 L 196.59716796875 106 Q 206.59716796875 106 206.59716796875 116 L 206.59716796875 137 Q 206.59716796875 147 196.59716796875 147 L 52 147 Q 42 147 42 137 L 42 116 Q 42 106 52 106 Z"
         fill="none"
         paint-order="fill stroke markers"
         stroke="#000000"
         stroke-dasharray=""
         stroke-miterlimit="10"
         id="path60" />
    </g>
    <g
       id="g70">
      <g
         id="g68">
        <path
           fill="none"
           stroke="none"
           id="path64" />
        <text
           dominant-baseline="central"
           fill="#000000"
           font-family="Arial"
           font-size="13px"
           font-style="normal"
           font-weight="bold"
           stroke="none"
           text-anchor="middle"
           text-decoration="undefined"
           transform="matrix(1 0 0 1 -62 -22)"
           x="186.798583984375"
           y="141.5"
           id="text66">Autenticação no Sistema</text>
      </g>
    </g>
    <g
       id="g74">
      <path
         d=" M 124 71 L 124 105"
         fill="none"
         paint-order="fill stroke markers"
         stroke="#000000"
         stroke-dasharray=""
         stroke-miterlimit="10"
         id="path72" />
    </g>
    <g
       id="g78">
      <path
         d=" M 119.790482243984 94.83732514237585 L 124 105 L 128.209517756016 94.83732514237585"
         fill="none"
         paint-order="fill stroke markers"
         stroke="#000000"
         stroke-dasharray=""
         stroke-miterlimit="10"
         id="path76" />
    </g>
    <g
       id="g82">
      <path
         d=" M 275 161 L 517.12255859375 161 Q 527.12255859375 161 527.12255859375 171 L 527.12255859375 192 Q 527.12255859375 202 517.12255859375 202 L 275 202 Q 265 202 265 192 L 265 171 Q 265 161 275 161 Z"
         fill="#C0C0C0"
         fill-opacity="0.2"
         paint-order="stroke fill markers"
         stroke="none"
         id="path80" />
    </g>
    <g
       id="g86">
      <path
         d=" M 268 154 L 510.12255859375 154 Q 520.12255859375 154 520.12255859375 164 L 520.12255859375 185 Q 520.12255859375 195 510.12255859375 195 L 268 195 Q 258 195 258 185 L 258 164 Q 258 154 268 154 Z"
         fill="#ffffff"
         paint-order="stroke fill markers"
         stroke="none"
         id="path84" />
    </g>
    <g
       id="g90">
      <path
         d=" M 268 154 L 510.12255859375 154 Q 520.12255859375 154 520.12255859375 164 L 520.12255859375 185 Q 520.12255859375 195 510.12255859375 195 L 268 195 Q 258 195 258 185 L 258 164 Q 258 154 268 154 Z"
         fill="none"
         paint-order="fill stroke markers"
         stroke="#000000"
         stroke-dasharray=""
         stroke-miterlimit="10"
         id="path88" />
    </g>
    <g
       id="g98">
      <g
         id="g96">
        <path
           fill="none"
           stroke="none"
           id="path92" />
        <text
           dominant-baseline="central"
           fill="#000000"
           font-family="Arial"
           font-size="13px"
           font-style="normal"
           font-weight="bold"
           stroke="none"
           text-anchor="middle"
           text-decoration="undefined"
           transform="matrix(1 0 0 1 -62 -22)"
           x="451.561279296875"
           y="189.5"
           id="text94">Acesso ao Módulo de Ordens de Serviço</text>
      </g>
    </g>
    <g
       id="g102">
      <path
         d=" M 208 141 L 273 153"
         fill="none"
         paint-order="fill stroke markers"
         stroke="#000000"
         stroke-dasharray=""
         stroke-miterlimit="10"
         id="path100" />
    </g>
    <g
       id="g106">
      <path
         d=" M 262.2419793016127 155.29455674435616 L 273 153 L 263.7704339782735 147.01542724577666"
         fill="none"
         paint-order="fill stroke markers"
         stroke="#000000"
         stroke-dasharray=""
         stroke-miterlimit="10"
         id="path104" />
    </g>
    <g
       id="g110">
      <path
         d=" M 43 217 L 208.576171875 217 Q 218.576171875 217 218.576171875 227 L 218.576171875 248 Q 218.576171875 258 208.576171875 258 L 43 258 Q 33 258 33 248 L 33 227 Q 33 217 43 217 Z"
         fill="#C0C0C0"
         fill-opacity="0.2"
         paint-order="stroke fill markers"
         stroke="none"
         id="path108" />
    </g>
    <g
       id="g114">
      <path
         d=" M 36 210 L 201.576171875 210 Q 211.576171875 210 211.576171875 220 L 211.576171875 241 Q 211.576171875 251 201.576171875 251 L 36 251 Q 26 251 26 241 L 26 220 Q 26 210 36 210 Z"
         fill="#ffffff"
         paint-order="stroke fill markers"
         stroke="none"
         id="path112" />
    </g>
    <g
       id="g118">
      <path
         d=" M 36 210 L 201.576171875 210 Q 211.576171875 210 211.576171875 220 L 211.576171875 241 Q 211.576171875 251 201.576171875 251 L 36 251 Q 26 251 26 241 L 26 220 Q 26 210 36 210 Z"
         fill="none"
         paint-order="fill stroke markers"
         stroke="#000000"
         stroke-dasharray=""
         stroke-miterlimit="10"
         id="path116" />
    </g>
    <g
       id="g126">
      <g
         id="g124">
        <path
           fill="none"
           stroke="none"
           id="path120" />
        <text
           dominant-baseline="central"
           fill="#000000"
           font-family="Arial"
           font-size="13px"
           font-style="normal"
           font-weight="bold"
           stroke="none"
           text-anchor="middle"
           text-decoration="undefined"
           transform="matrix(1 0 0 1 -62 -22)"
           x="181.2880859375"
           y="245.5"
           id="text122">Seleciona Ordem de Serivço</text>
      </g>
    </g>
    <g
       id="g130">
      <path
         d=" M 283 196 L 213 210"
         fill="none"
         paint-order="fill stroke markers"
         stroke="#000000"
         stroke-dasharray=""
         stroke-miterlimit="10"
         id="path128" />
    </g>
    <g
       id="g134">
      <path
         d=" M 222.1397682256108 203.87916371872967 L 213 210 L 223.79087693182163 212.13470724978384"
         fill="none"
         paint-order="fill stroke markers"
         stroke="#000000"
         stroke-dasharray=""
         stroke-miterlimit="10"
         id="path132" />
    </g>
    <g
       id="g138">
      <path
         d=" M 267 281 L 554.654296875 281 Q 564.654296875 281 564.654296875 291 L 564.654296875 312 Q 564.654296875 322 554.654296875 322 L 267 322 Q 257 322 257 312 L 257 291 Q 257 281 267 281 Z"
         fill="#C0C0C0"
         fill-opacity="0.2"
         paint-order="stroke fill markers"
         stroke="none"
         id="path136" />
    </g>
    <g
       id="g142">
      <path
         d=" M 260 274 L 547.654296875 274 Q 557.654296875 274 557.654296875 284 L 557.654296875 305 Q 557.654296875 315 547.654296875 315 L 260 315 Q 250 315 250 305 L 250 284 Q 250 274 260 274 Z"
         fill="#ffffff"
         paint-order="stroke fill markers"
         stroke="none"
         id="path140" />
    </g>
    <g
       id="g146">
      <path
         d=" M 260 274 L 547.654296875 274 Q 557.654296875 274 557.654296875 284 L 557.654296875 305 Q 557.654296875 315 547.654296875 315 L 260 315 Q 250 315 250 305 L 250 284 Q 250 274 260 274 Z"
         fill="none"
         paint-order="fill stroke markers"
         stroke="#000000"
         stroke-dasharray=""
         stroke-miterlimit="10"
         id="path144" />
    </g>
    <g
       id="g154">
      <g
         id="g152">
        <path
           fill="none"
           stroke="none"
           id="path148" />
        <text
           dominant-baseline="central"
           fill="#000000"
           font-family="Arial"
           font-size="13px"
           font-style="normal"
           font-weight="bold"
           stroke="none"
           text-anchor="middle"
           text-decoration="undefined"
           transform="matrix(1 0 0 1 -62 -22)"
           x="466.3271484375"
           y="309.5"
           id="text150">Informa a mensagem que será enviada</text>
      </g>
    </g>
    <g
       id="g158">
      <path
         d=" M 213 251 L 309 273"
         fill="none"
         paint-order="fill stroke markers"
         stroke="#000000"
         stroke-dasharray=""
         stroke-miterlimit="10"
         id="path156" />
    </g>
    <g
       id="g162">
      <path
         d=" M 298.1538064772398 274.83305375448595 L 309 273 L 300.0344182699182 266.6267477500711"
         fill="none"
         paint-order="fill stroke markers"
         stroke="#000000"
         stroke-dasharray=""
         stroke-miterlimit="10"
         id="path160" />
    </g>
    <g
       id="g166">
      <path
         d=" M 35 345 L 227.3251953125 345 Q 237.3251953125 345 237.3251953125 355 L 237.3251953125 376 Q 237.3251953125 386 227.3251953125 386 L 35 386 Q 25 386 25 376 L 25 355 Q 25 345 35 345 Z"
         fill="#C0C0C0"
         fill-opacity="0.2"
         paint-order="stroke fill markers"
         stroke="none"
         id="path164" />
    </g>
    <g
       id="g170">
      <path
         d=" M 28 338 L 220.3251953125 338 Q 230.3251953125 338 230.3251953125 348 L 230.3251953125 369 Q 230.3251953125 379 220.3251953125 379 L 28 379 Q 18 379 18 369 L 18 348 Q 18 338 28 338 Z"
         fill="#ffffff"
         paint-order="stroke fill markers"
         stroke="none"
         id="path168" />
    </g>
    <g
       id="g174">
      <path
         d=" M 28 338 L 220.3251953125 338 Q 230.3251953125 338 230.3251953125 348 L 230.3251953125 369 Q 230.3251953125 379 220.3251953125 379 L 28 379 Q 18 379 18 369 L 18 348 Q 18 338 28 338 Z"
         fill="none"
         paint-order="fill stroke markers"
         stroke="#000000"
         stroke-dasharray=""
         stroke-miterlimit="10"
         id="path172" />
    </g>
    <g
       id="g182">
      <g
         id="g180">
        <path
           fill="none"
           stroke="none"
           id="path176" />
        <text
           dominant-baseline="central"
           fill="#000000"
           font-family="Arial"
           font-size="13px"
           font-style="normal"
           font-weight="bold"
           stroke="none"
           text-anchor="middle"
           text-decoration="undefined"
           transform="matrix(1 0 0 1 -62 -22)"
           x="186.66259765625"
           y="373.5"
           id="text178">Altera Mensagem se Necessário</text>
      </g>
    </g>
    <g
       id="g186">
      <path
         d=" M 307 316 L 216 337"
         fill="none"
         paint-order="fill stroke markers"
         stroke="#000000"
         stroke-dasharray=""
         stroke-miterlimit="10"
         id="path184" />
    </g>
    <g
       id="g190">
      <path
         d=" M 224.95587081991863 330.61310890519263 L 216 337 L 226.84897099203346 338.8165429843569"
         fill="none"
         paint-order="fill stroke markers"
         stroke="#000000"
         stroke-dasharray=""
         stroke-miterlimit="10"
         id="path188" />
    </g>
    <g
       id="g194">
      <path
         d=" M 83 433 L 169.0654296875 433 Q 179.0654296875 433 179.0654296875 443 L 179.0654296875 464 Q 179.0654296875 474 169.0654296875 474 L 83 474 Q 73 474 73 464 L 73 443 Q 73 433 83 433 Z"
         fill="#C0C0C0"
         fill-opacity="0.2"
         paint-order="stroke fill markers"
         stroke="none"
         id="path192" />
    </g>
    <g
       id="g198">
      <path
         d=" M 76 426 L 162.0654296875 426 Q 172.0654296875 426 172.0654296875 436 L 172.0654296875 457 Q 172.0654296875 467 162.0654296875 467 L 76 467 Q 66 467 66 457 L 66 436 Q 66 426 76 426 Z"
         fill="#ffffff"
         paint-order="stroke fill markers"
         stroke="none"
         id="path196" />
    </g>
    <g
       id="g202">
      <path
         d=" M 76 426 L 162.0654296875 426 Q 172.0654296875 426 172.0654296875 436 L 172.0654296875 457 Q 172.0654296875 467 162.0654296875 467 L 76 467 Q 66 467 66 457 L 66 436 Q 66 426 76 426 Z"
         fill="none"
         paint-order="fill stroke markers"
         stroke="#000000"
         stroke-dasharray=""
         stroke-miterlimit="10"
         id="path200" />
    </g>
    <g
       id="g210">
      <g
         id="g208">
        <path
           fill="none"
           stroke="none"
           id="path204" />
        <text
           dominant-baseline="central"
           fill="#000000"
           font-family="Arial"
           font-size="13px"
           font-style="normal"
           font-weight="bold"
           stroke="none"
           text-anchor="middle"
           text-decoration="undefined"
           transform="matrix(1 0 0 1 -62 -22)"
           x="181.53271484375"
           y="461.5"
           id="text206">Confirma Envio</text>
      </g>
    </g>
    <g
       id="g214">
      <path
         d=" M 123 380 L 120 425"
         fill="none"
         paint-order="fill stroke markers"
         stroke="#000000"
         stroke-dasharray=""
         stroke-miterlimit="10"
         id="path212" />
    </g>
    <g
       id="g218">
      <path
         d=" M 116.47581673711738 414.5798209070276 L 120 425 L 124.87620541449061 415.13984681885256"
         fill="none"
         paint-order="fill stroke markers"
         stroke="#000000"
         stroke-dasharray=""
         stroke-miterlimit="10"
         id="path216" />
    </g>
    <g
       id="g222">
      <path
         d=" M 315 497 L 476.2216796875 497 Q 486.2216796875 497 486.2216796875 507 L 486.2216796875 528 Q 486.2216796875 538 476.2216796875 538 L 315 538 Q 305 538 305 528 L 305 507 Q 305 497 315 497 Z"
         fill="#C0C0C0"
         fill-opacity="0.2"
         paint-order="stroke fill markers"
         stroke="none"
         id="path220" />
    </g>
    <g
       id="g226">
      <path
         d=" M 308 490 L 469.2216796875 490 Q 479.2216796875 490 479.2216796875 500 L 479.2216796875 521 Q 479.2216796875 531 469.2216796875 531 L 308 531 Q 298 531 298 521 L 298 500 Q 298 490 308 490 Z"
         fill="#ffffff"
         paint-order="stroke fill markers"
         stroke="none"
         id="path224" />
    </g>
    <g
       id="g230">
      <path
         d=" M 308 490 L 469.2216796875 490 Q 479.2216796875 490 479.2216796875 500 L 479.2216796875 521 Q 479.2216796875 531 469.2216796875 531 L 308 531 Q 298 531 298 521 L 298 500 Q 298 490 308 490 Z"
         fill="none"
         paint-order="fill stroke markers"
         stroke="#000000"
         stroke-dasharray=""
         stroke-miterlimit="10"
         id="path228" />
    </g>
    <g
       id="g238">
      <g
         id="g236">
        <path
           fill="none"
           stroke="none"
           id="path232" />
        <text
           dominant-baseline="central"
           fill="#000000"
           font-family="Arial"
           font-size="13px"
           font-style="normal"
           font-weight="bold"
           stroke="none"
           text-anchor="middle"
           text-decoration="undefined"
           transform="matrix(1 0 0 1 -62 -22)"
           x="451.11083984375"
           y="525.5"
           id="text234">Envia Mensagem ao Cliente</text>
      </g>
    </g>
    <g
       id="g242">
      <path
         d=" M 173 459 L 300 489"
         fill="none"
         paint-order="fill stroke markers"
         stroke="#000000"
         stroke-dasharray=""
         stroke-miterlimit="10"
         id="path240" />
    </g>
    <g
       id="g246">
      <path
         d=" M 289.14178357467244 490.7604363268083 L 300 489 L 291.07726506952645 482.566897998593"
         fill="none"
         paint-order="fill stroke markers"
         stroke="#000000"
         stroke-dasharray=""
         stroke-miterlimit="10"
         id="path244" />
    </g>
    <g
       id="g250">
      <path
         d=" M 385 598 C 385 590.8202976 390.8202976 585 398 585 C 405.1797024 585 411 590.8202976 411 598 C 411 605.1797024 405.1797024 611 398 611 C 390.8202976 611 385 605.1797024 385 598 Z"
         fill="#C0C0C0"
         fill-opacity="0.2"
         paint-order="stroke fill markers"
         stroke="none"
         id="path248" />
    </g>
    <g
       id="g254">
      <path
         d=" M 378 591 C 378 583.8202976 383.8202976 578 391 578 C 398.1797024 578 404 583.8202976 404 591 C 404 598.1797024 398.1797024 604 391 604 C 383.8202976 604 378 598.1797024 378 591 Z"
         fill="none"
         paint-order="fill stroke markers"
         stroke="#000000"
         stroke-dasharray=""
         stroke-miterlimit="10"
         id="path252" />
    </g>
    <g
       id="g258">
      <path
         d=" M 383 591 C 383 586.5817216 386.5817216 583 391 583 C 395.4182784 583 399 586.5817216 399 591 C 399 595.4182784 395.4182784 599 391 599 C 386.5817216 599 383 595.4182784 383 591 Z"
         fill="#000000"
         paint-order="stroke fill markers"
         stroke="none"
         id="path256" />
    </g>
    <g
       id="g262">
      <path
         d=" M 389 532 L 390 577"
         fill="none"
         paint-order="fill stroke markers"
         stroke="#000000"
         stroke-dasharray=""
         stroke-miterlimit="10"
         id="path260" />
    </g>
    <g
       id="g266">
      <path
         d=" M 385.56573976885824 566.9333552659034 L 390 577 L 393.98269727628934 566.7463117657383"
         fill="none"
         paint-order="fill stroke markers"
         stroke="#000000"
         stroke-dasharray=""
         stroke-miterlimit="10"
         id="path264" />
    </g>
  </g>
</svg>
