<?xml version="1.0" encoding="UTF-8" standalone="no"?>
<svg
   height="748"
   version="1.1"
   width="604"
   id="svg370"
   sodipodi:docname="F_F04 - Cadastrar receita e despesa.svg"
   inkscape:version="1.1.1 (3bf5ae0d25, 2021-09-20)"
   xmlns:inkscape="http://www.inkscape.org/namespaces/inkscape"
   xmlns:sodipodi="http://sodipodi.sourceforge.net/DTD/sodipodi-0.dtd"
   xmlns="http://www.w3.org/2000/svg"
   xmlns:svg="http://www.w3.org/2000/svg">
  <sodipodi:namedview
     id="namedview372"
     pagecolor="#ffffff"
     bordercolor="#666666"
     borderopacity="1.0"
     inkscape:pageshadow="2"
     inkscape:pageopacity="0.0"
     inkscape:pagecheckerboard="0"
     showgrid="false"
     inkscape:zoom="0.77895186"
     inkscape:cx="374.86271"
     inkscape:cy="451.2474"
     inkscape:window-width="1920"
     inkscape:window-height="1009"
     inkscape:window-x="-8"
     inkscape:window-y="-8"
     inkscape:window-maximized="1"
     inkscape:current-layer="svg370" />
  <defs
     id="defs2" />
  <rect
     style="fill:#ffffff;stroke:#000000;stroke-width:2"
     id="rect1211"
     width="644.45575"
     height="804.9278"
     x="-17.97287"
     y="-23.107975" />
  <g
     id="g368"
     inkscape:export-filename="K:\ADS\SEMESTRE 3\Engenharia de Software II\Trabalho ERS\Diagramas de Atividade\F_F04 - Cadastrar receita e despesa.png"
     inkscape:export-xdpi="327.64505"
     inkscape:export-ydpi="327.64505">
    <g
       id="g6">
      <rect
         fill="#ffffff"
         height="21"
         stroke="none"
         transform="matrix(1 0 0 1 -30 -14)"
         width="256"
         x="40"
         y="24"
         id="rect4" />
    </g>
    <g
       id="g10">
      <path
         d=" M 10 10 L 266 10 L 266 31 L 10 31 L 10 10 Z Z"
         fill="none"
         paint-order="fill stroke markers"
         stroke="#000000"
         stroke-dasharray=""
         stroke-miterlimit="10"
         stroke-width="2"
         id="path8" />
    </g>
    <g
       id="g14">
      <path
         d=" M 10 738 L 10 10 L 266 10 L 266 738"
         fill="none"
         paint-order="fill stroke markers"
         stroke="#000000"
         stroke-dasharray=""
         stroke-miterlimit="10"
         stroke-width="2"
         id="path12" />
    </g>
    <g
       id="g22">
      <g
         id="g20">
        <path
           fill="none"
           stroke="none"
           id="path16" />
        <text
           dominant-baseline="text-before-edge"
           fill="#000000"
           font-family="Arial"
           font-size="13px"
           font-style="normal"
           font-weight="normal"
           stroke="none"
           text-anchor="middle"
           text-decoration="undefined"
           transform="matrix(1 0 0 1 -30 -14)"
           x="168"
           y="28"
           id="text18">Luthier</text>
      </g>
    </g>
    <g
       id="g26">
      <rect
         fill="#ffffff"
         height="21"
         stroke="none"
         transform="matrix(1 0 0 1 -30 -14)"
         width="328"
         x="296"
         y="24"
         id="rect24" />
    </g>
    <g
       id="g30">
      <path
         d=" M 266 10 L 594 10 L 594 31 L 266 31 L 266 10 Z Z"
         fill="none"
         paint-order="fill stroke markers"
         stroke="#000000"
         stroke-dasharray=""
         stroke-miterlimit="10"
         stroke-width="2"
         id="path28" />
    </g>
    <g
       id="g34">
      <path
         d=" M 266 738 L 266 10 L 594 10 L 594 738"
         fill="none"
         paint-order="fill stroke markers"
         stroke="#000000"
         stroke-dasharray=""
         stroke-miterlimit="10"
         stroke-width="2"
         id="path32" />
    </g>
    <g
       id="g42">
      <g
         id="g40">
        <path
           fill="none"
           stroke="none"
           id="path36" />
        <text
           dominant-baseline="text-before-edge"
           fill="#000000"
           font-family="Arial"
           font-size="13px"
           font-style="normal"
           font-weight="normal"
           stroke="none"
           text-anchor="middle"
           text-decoration="undefined"
           transform="matrix(1 0 0 1 -30 -14)"
           x="460"
           y="28"
           id="text38">Sistema</text>
      </g>
    </g>
    <g
       id="g46">
      <path
         d=" M 129 67 C 129 61.477152000000004 133.477152 57 139 57 C 144.522848 57 149 61.477152000000004 149 67 C 149 72.522848 144.522848 77 139 77 C 133.477152 77 129 72.522848 129 67 Z"
         fill="#C0C0C0"
         fill-opacity="0.2"
         paint-order="stroke fill markers"
         stroke="none"
         id="path44" />
    </g>
    <g
       id="g50">
      <path
         d=" M 122 60 C 122 54.477152000000004 126.47715199999999 50 132 50 C 137.522848 50 142 54.477152000000004 142 60 C 142 65.522848 137.522848 70 132 70 C 126.47715199999999 70 122 65.522848 122 60 Z"
         fill="#000000"
         paint-order="stroke fill markers"
         stroke="none"
         id="path48" />
    </g>
    <g
       id="g54">
      <path
         d=" M 75 113 L 219.59716796875 113 Q 229.59716796875 113 229.59716796875 123 L 229.59716796875 144 Q 229.59716796875 154 219.59716796875 154 L 75 154 Q 65 154 65 144 L 65 123 Q 65 113 75 113 Z"
         fill="#C0C0C0"
         fill-opacity="0.2"
         paint-order="stroke fill markers"
         stroke="none"
         id="path52" />
    </g>
    <g
       id="g58">
      <path
         d=" M 68 106 L 212.59716796875 106 Q 222.59716796875 106 222.59716796875 116 L 222.59716796875 137 Q 222.59716796875 147 212.59716796875 147 L 68 147 Q 58 147 58 137 L 58 116 Q 58 106 68 106 Z"
         fill="#ffffff"
         paint-order="stroke fill markers"
         stroke="none"
         id="path56" />
    </g>
    <g
       id="g62">
      <path
         d=" M 68 106 L 212.59716796875 106 Q 222.59716796875 106 222.59716796875 116 L 222.59716796875 137 Q 222.59716796875 147 212.59716796875 147 L 68 147 Q 58 147 58 137 L 58 116 Q 58 106 68 106 Z"
         fill="none"
         paint-order="fill stroke markers"
         stroke="#000000"
         stroke-dasharray=""
         stroke-miterlimit="10"
         id="path60" />
    </g>
    <g
       id="g70">
      <g
         id="g68">
        <path
           fill="none"
           stroke="none"
           id="path64" />
        <text
           dominant-baseline="central"
           fill="#000000"
           font-family="Arial"
           font-size="13px"
           font-style="normal"
           font-weight="bold"
           stroke="none"
           text-anchor="middle"
           text-decoration="undefined"
           transform="matrix(1 0 0 1 -30 -14)"
           x="170.798583984375"
           y="133.5"
           id="text66">Autenticação no Sistema</text>
      </g>
    </g>
    <g
       id="g74">
      <path
         d=" M 133 71 L 137 105"
         fill="none"
         paint-order="fill stroke markers"
         stroke="#000000"
         stroke-dasharray=""
         stroke-miterlimit="10"
         id="path72" />
    </g>
    <g
       id="g78">
      <path
         d=" M 131.6318952877182 95.39877862988368 L 137 105 L 139.99326549430853 94.41508801734365"
         fill="none"
         paint-order="fill stroke markers"
         stroke="#000000"
         stroke-dasharray=""
         stroke-miterlimit="10"
         id="path76" />
    </g>
    <g
       id="g82">
      <path
         d=" M 299 153 L 571.45166015625 153 Q 581.45166015625 153 581.45166015625 163 L 581.45166015625 184 Q 581.45166015625 194 571.45166015625 194 L 299 194 Q 289 194 289 184 L 289 163 Q 289 153 299 153 Z"
         fill="#C0C0C0"
         fill-opacity="0.2"
         paint-order="stroke fill markers"
         stroke="none"
         id="path80" />
    </g>
    <g
       id="g86">
      <path
         d=" M 292 146 L 564.45166015625 146 Q 574.45166015625 146 574.45166015625 156 L 574.45166015625 177 Q 574.45166015625 187 564.45166015625 187 L 292 187 Q 282 187 282 177 L 282 156 Q 282 146 292 146 Z"
         fill="#ffffff"
         paint-order="stroke fill markers"
         stroke="none"
         id="path84" />
    </g>
    <g
       id="g90">
      <path
         d=" M 292 146 L 564.45166015625 146 Q 574.45166015625 146 574.45166015625 156 L 574.45166015625 177 Q 574.45166015625 187 564.45166015625 187 L 292 187 Q 282 187 282 177 L 282 156 Q 282 146 292 146 Z"
         fill="none"
         paint-order="fill stroke markers"
         stroke="#000000"
         stroke-dasharray=""
         stroke-miterlimit="10"
         id="path88" />
    </g>
    <g
       id="g98">
      <g
         id="g96">
        <path
           fill="none"
           stroke="none"
           id="path92" />
        <text
           dominant-baseline="central"
           fill="#000000"
           font-family="Arial"
           font-size="13px"
           font-style="normal"
           font-weight="bold"
           stroke="none"
           text-anchor="middle"
           text-decoration="undefined"
           transform="matrix(1 0 0 1 -30 -14)"
           x="458.725830078125"
           y="173.5"
           id="text94">Acesso Módulo de Gerenciamento Financeiro</text>
      </g>
    </g>
    <g
       id="g102">
      <path
         d=" M 224 138 L 281 146"
         fill="none"
         paint-order="fill stroke markers"
         stroke="#000000"
         stroke-dasharray=""
         stroke-miterlimit="10"
         id="path100" />
    </g>
    <g
       id="g106">
      <path
         d=" M 270.3508891977253 148.75616384144266 L 281 146 L 271.5210393957594 140.41884368044992"
         fill="none"
         paint-order="fill stroke markers"
         stroke="#000000"
         stroke-dasharray=""
         stroke-miterlimit="10"
         id="path104" />
    </g>
    <g
       id="g110">
      <path
         d=" M 67 201 L 222.46435546875 201 Q 232.46435546875 201 232.46435546875 211 L 232.46435546875 232 Q 232.46435546875 242 222.46435546875 242 L 67 242 Q 57 242 57 232 L 57 211 Q 57 201 67 201 Z"
         fill="#C0C0C0"
         fill-opacity="0.2"
         paint-order="stroke fill markers"
         stroke="none"
         id="path108" />
    </g>
    <g
       id="g114">
      <path
         d=" M 60 194 L 215.46435546875 194 Q 225.46435546875 194 225.46435546875 204 L 225.46435546875 225 Q 225.46435546875 235 215.46435546875 235 L 60 235 Q 50 235 50 225 L 50 204 Q 50 194 60 194 Z"
         fill="#ffffff"
         paint-order="stroke fill markers"
         stroke="none"
         id="path112" />
    </g>
    <g
       id="g118">
      <path
         d=" M 60 194 L 215.46435546875 194 Q 225.46435546875 194 225.46435546875 204 L 225.46435546875 225 Q 225.46435546875 235 215.46435546875 235 L 60 235 Q 50 235 50 225 L 50 204 Q 50 194 60 194 Z"
         fill="none"
         paint-order="fill stroke markers"
         stroke="#000000"
         stroke-dasharray=""
         stroke-miterlimit="10"
         id="path116" />
    </g>
    <g
       id="g126">
      <g
         id="g124">
        <path
           fill="none"
           stroke="none"
           id="path120" />
        <text
           dominant-baseline="central"
           fill="#000000"
           font-family="Arial"
           font-size="13px"
           font-style="normal"
           font-weight="bold"
           stroke="none"
           text-anchor="middle"
           text-decoration="undefined"
           transform="matrix(1 0 0 1 -30 -14)"
           x="168.232177734375"
           y="221.5"
           id="text122">Escolhe a Opção Desejada</text>
      </g>
    </g>
    <g
       id="g130">
      <path
         d=" M 295 188 L 226 199"
         fill="none"
         paint-order="fill stroke markers"
         stroke="#000000"
         stroke-dasharray=""
         stroke-miterlimit="10"
         id="path128" />
    </g>
    <g
       id="g134">
      <path
         d=" M 235.37323011765136 193.24304271671627 L 226 199 L 236.69865811182444 201.55709104380207"
         fill="none"
         paint-order="fill stroke markers"
         stroke="#000000"
         stroke-dasharray=""
         stroke-miterlimit="10"
         id="path132" />
    </g>
    <g
       id="g138">
      <path
         d=" M 129 282.5 L 140.5 273 L 152 282.5 L 140.5 292 L 129 282.5"
         fill="#C0C0C0"
         fill-opacity="0.2"
         paint-order="stroke fill markers"
         stroke="none"
         id="path136" />
    </g>
    <g
       id="g142">
      <path
         d=" M 122 275.5 L 133.5 266 L 145 275.5 L 133.5 285 L 122 275.5"
         fill="#ffffff"
         paint-order="stroke fill markers"
         stroke="none"
         id="path140" />
    </g>
    <g
       id="g146">
      <path
         d=" M 122 275.5 L 133.5 266 L 145 275.5 L 133.5 285 L 122 275.5 L 122 275.5"
         fill="none"
         paint-order="fill stroke markers"
         stroke="#000000"
         stroke-dasharray=""
         stroke-miterlimit="10"
         id="path144" />
    </g>
    <g
       id="g150">
      <path
         d=" M 136 236 L 134 265"
         fill="none"
         paint-order="fill stroke markers"
         stroke="#000000"
         stroke-dasharray=""
         stroke-miterlimit="10"
         id="path148" />
    </g>
    <g
       id="g154">
      <path
         d=" M 130.49967070517494 254.57178371782646 L 134 265 L 138.89875586804817 255.1510309704384"
         fill="none"
         paint-order="fill stroke markers"
         stroke="#000000"
         stroke-dasharray=""
         stroke-miterlimit="10"
         id="path152" />
    </g>
    <g
       id="g158">
      <path
         d=" M 363 289 L 576.73583984375 289 Q 586.73583984375 289 586.73583984375 299 L 586.73583984375 320 Q 586.73583984375 330 576.73583984375 330 L 363 330 Q 353 330 353 320 L 353 299 Q 353 289 363 289 Z"
         fill="#C0C0C0"
         fill-opacity="0.2"
         paint-order="stroke fill markers"
         stroke="none"
         id="path156" />
    </g>
    <g
       id="g162">
      <path
         d=" M 356 282 L 569.73583984375 282 Q 579.73583984375 282 579.73583984375 292 L 579.73583984375 313 Q 579.73583984375 323 569.73583984375 323 L 356 323 Q 346 323 346 313 L 346 292 Q 346 282 356 282 Z"
         fill="#ffffff"
         paint-order="stroke fill markers"
         stroke="none"
         id="path160" />
    </g>
    <g
       id="g166">
      <path
         d=" M 356 282 L 569.73583984375 282 Q 579.73583984375 282 579.73583984375 292 L 579.73583984375 313 Q 579.73583984375 323 569.73583984375 323 L 356 323 Q 346 323 346 313 L 346 292 Q 346 282 356 282 Z"
         fill="none"
         paint-order="fill stroke markers"
         stroke="#000000"
         stroke-dasharray=""
         stroke-miterlimit="10"
         id="path164" />
    </g>
    <g
       id="g174">
      <g
         id="g172">
        <path
           fill="none"
           stroke="none"
           id="path168" />
        <text
           dominant-baseline="central"
           fill="#000000"
           font-family="Arial"
           font-size="13px"
           font-style="normal"
           font-weight="bold"
           stroke="none"
           text-anchor="middle"
           text-decoration="undefined"
           transform="matrix(1 0 0 1 -30 -14)"
           x="493.367919921875"
           y="309.5"
           id="text170">Abre a Tela de Cadastro de Despesa</text>
      </g>
    </g>
    <g
       id="g178">
      <path
         d=" M 307 345 L 513.505859375 345 Q 523.505859375 345 523.505859375 355 L 523.505859375 376 Q 523.505859375 386 513.505859375 386 L 307 386 Q 297 386 297 376 L 297 355 Q 297 345 307 345 Z"
         fill="#C0C0C0"
         fill-opacity="0.2"
         paint-order="stroke fill markers"
         stroke="none"
         id="path176" />
    </g>
    <g
       id="g182">
      <path
         d=" M 300 338 L 506.505859375 338 Q 516.505859375 338 516.505859375 348 L 516.505859375 369 Q 516.505859375 379 506.505859375 379 L 300 379 Q 290 379 290 369 L 290 348 Q 290 338 300 338 Z"
         fill="#ffffff"
         paint-order="stroke fill markers"
         stroke="none"
         id="path180" />
    </g>
    <g
       id="g186">
      <path
         d=" M 300 338 L 506.505859375 338 Q 516.505859375 338 516.505859375 348 L 516.505859375 369 Q 516.505859375 379 506.505859375 379 L 300 379 Q 290 379 290 369 L 290 348 Q 290 338 300 338 Z"
         fill="none"
         paint-order="fill stroke markers"
         stroke="#000000"
         stroke-dasharray=""
         stroke-miterlimit="10"
         id="path184" />
    </g>
    <g
       id="g194">
      <g
         id="g192">
        <path
           fill="none"
           stroke="none"
           id="path188" />
        <text
           dominant-baseline="central"
           fill="#000000"
           font-family="Arial"
           font-size="13px"
           font-style="normal"
           font-weight="bold"
           stroke="none"
           text-anchor="middle"
           text-decoration="undefined"
           transform="matrix(1 0 0 1 -30 -14)"
           x="433.7529296875"
           y="365.5"
           id="text190">Abre a Tela de Cadastro de Receita</text>
      </g>
    </g>
    <g
       id="g198">
      <path
         d=" M 146 276 L 345 292"
         fill="none"
         paint-order="fill stroke markers"
         stroke="#000000"
         stroke-dasharray=""
         stroke-miterlimit="10"
         id="path196" />
    </g>
    <g
       id="g202">
      <path
         d=" M 334.5326499556106 295.38150603255735 L 345 292 L 335.20737995631447 286.98955164880346"
         fill="none"
         paint-order="fill stroke markers"
         stroke="#000000"
         stroke-dasharray=""
         stroke-miterlimit="10"
         id="path200" />
    </g>
    <g
       id="g206">
      <rect
         fill="#ffffff"
         height="13"
         stroke="none"
         transform="matrix(1 0 0 1 -30 -14)"
         width="111.998046875"
         x="221"
         y="277"
         id="rect204" />
    </g>
    <g
       id="g214">
      <g
         id="g212">
        <path
           fill="none"
           stroke="none"
           id="path208" />
        <text
           dominant-baseline="central"
           fill="#000000"
           font-family="Arial"
           font-size="13px"
           font-style="normal"
           font-weight="normal"
           stroke="none"
           text-anchor="middle"
           text-decoration="undefined"
           transform="matrix(1 0 0 1 -30 -14)"
           x="276.9990234375"
           y="283.5"
           id="text210">Cadastrar Despesa</text>
      </g>
    </g>
    <g
       id="g218">
      <path
         d=" M 146 284 L 210 330 L 289 341"
         fill="none"
         paint-order="fill stroke markers"
         stroke="#000000"
         stroke-dasharray=""
         stroke-miterlimit="10"
         id="path216" />
    </g>
    <g
       id="g222">
      <path
         d=" M 278.35389721461445 343.7677600118157 L 289 341 L 279.514966654193 335.42917040029675"
         fill="none"
         paint-order="fill stroke markers"
         stroke="#000000"
         stroke-dasharray=""
         stroke-miterlimit="10"
         id="path220" />
    </g>
    <g
       id="g226">
      <rect
         fill="#ffffff"
         height="13"
         stroke="none"
         transform="matrix(1 0 0 1 -30 -14)"
         width="111.26806640625"
         x="187"
         y="323"
         id="rect224" />
    </g>
    <g
       id="g234">
      <g
         id="g232">
        <path
           fill="none"
           stroke="none"
           id="path228" />
        <text
           dominant-baseline="central"
           fill="#000000"
           font-family="Arial"
           font-size="13px"
           font-style="normal"
           font-weight="normal"
           stroke="none"
           text-anchor="middle"
           text-decoration="undefined"
           transform="matrix(1 0 0 1 -30 -14)"
           x="242.634033203125"
           y="329.5"
           id="text230">Cadastrar Receitas</text>
      </g>
    </g>
    <g
       id="g238">
      <path
         d=" M 43 465 L 245.43701171875 465 Q 255.43701171875 465 255.43701171875 475 L 255.43701171875 496 Q 255.43701171875 506 245.43701171875 506 L 43 506 Q 33 506 33 496 L 33 475 Q 33 465 43 465 Z"
         fill="#C0C0C0"
         fill-opacity="0.2"
         paint-order="stroke fill markers"
         stroke="none"
         id="path236" />
    </g>
    <g
       id="g242">
      <path
         d=" M 36 458 L 238.43701171875 458 Q 248.43701171875 458 248.43701171875 468 L 248.43701171875 489 Q 248.43701171875 499 238.43701171875 499 L 36 499 Q 26 499 26 489 L 26 468 Q 26 458 36 458 Z"
         fill="#ffffff"
         paint-order="stroke fill markers"
         stroke="none"
         id="path240" />
    </g>
    <g
       id="g246">
      <path
         d=" M 36 458 L 238.43701171875 458 Q 248.43701171875 458 248.43701171875 468 L 248.43701171875 489 Q 248.43701171875 499 238.43701171875 499 L 36 499 Q 26 499 26 489 L 26 468 Q 26 458 36 458 Z"
         fill="none"
         paint-order="fill stroke markers"
         stroke="#000000"
         stroke-dasharray=""
         stroke-miterlimit="10"
         id="path244" />
    </g>
    <g
       id="g254">
      <g
         id="g252">
        <path
           fill="none"
           stroke="none"
           id="path248" />
        <text
           dominant-baseline="central"
           fill="#000000"
           font-family="Arial"
           font-size="13px"
           font-style="normal"
           font-weight="bold"
           stroke="none"
           text-anchor="middle"
           text-decoration="undefined"
           transform="matrix(1 0 0 1 -30 -14)"
           x="167.718505859375"
           y="485.5"
           id="text250">Preenche os Campos Necessários</text>
      </g>
    </g>
    <g
       id="g258">
      <path
         d=" M 409 434.5 L 420.5 425 L 432 434.5 L 420.5 444 L 409 434.5"
         fill="#C0C0C0"
         fill-opacity="0.2"
         paint-order="stroke fill markers"
         stroke="none"
         id="path256" />
    </g>
    <g
       id="g262">
      <path
         d=" M 402 427.5 L 413.5 418 L 425 427.5 L 413.5 437 L 402 427.5"
         fill="#ffffff"
         paint-order="stroke fill markers"
         stroke="none"
         id="path260" />
    </g>
    <g
       id="g266">
      <path
         d=" M 402 427.5 L 413.5 418 L 425 427.5 L 413.5 437 L 402 427.5 L 402 427.5"
         fill="none"
         paint-order="fill stroke markers"
         stroke="#000000"
         stroke-dasharray=""
         stroke-miterlimit="10"
         id="path264" />
    </g>
    <g
       id="g270">
      <path
         d=" M 406 380 L 412 417"
         fill="none"
         paint-order="fill stroke markers"
         stroke="#000000"
         stroke-dasharray=""
         stroke-miterlimit="10"
         id="path268" />
    </g>
    <g
       id="g274">
      <path
         d=" M 406.21801082589684 407.64219036362925 L 412 417 L 414.528486897175 406.2945455953138"
         fill="none"
         paint-order="fill stroke markers"
         stroke="#000000"
         stroke-dasharray=""
         stroke-miterlimit="10"
         id="path272" />
    </g>
    <g
       id="g278">
      <path
         d=" M 511 324 L 578 354 L 426 421"
         fill="none"
         paint-order="fill stroke markers"
         stroke="#000000"
         stroke-dasharray=""
         stroke-miterlimit="10"
         id="path276" />
    </g>
    <g
       id="g282">
      <path
         d=" M 433.60145796656946 413.0490354809949 L 426 421 L 436.9972234034279 420.7528615467036"
         fill="none"
         paint-order="fill stroke markers"
         stroke="#000000"
         stroke-dasharray=""
         stroke-miterlimit="10"
         id="path280" />
    </g>
    <g
       id="g286">
      <path
         d=" M 401 429 L 249 457"
         fill="none"
         paint-order="fill stroke markers"
         stroke="#000000"
         stroke-dasharray=""
         stroke-miterlimit="10"
         id="path284" />
    </g>
    <g
       id="g290">
      <path
         d=" M 258.23190852971834 451.0190414732324 L 249 457 L 259.75712145693063 459.29876879238486"
         fill="none"
         paint-order="fill stroke markers"
         stroke="#000000"
         stroke-dasharray=""
         stroke-miterlimit="10"
         id="path288" />
    </g>
    <g
       id="g294">
      <path
         d=" M 75 553 L 210.24072265625 553 Q 220.24072265625 553 220.24072265625 563 L 220.24072265625 584 Q 220.24072265625 594 210.24072265625 594 L 75 594 Q 65 594 65 584 L 65 563 Q 65 553 75 553 Z"
         fill="#C0C0C0"
         fill-opacity="0.2"
         paint-order="stroke fill markers"
         stroke="none"
         id="path292" />
    </g>
    <g
       id="g298">
      <path
         d=" M 68 546 L 203.24072265625 546 Q 213.24072265625 546 213.24072265625 556 L 213.24072265625 577 Q 213.24072265625 587 203.24072265625 587 L 68 587 Q 58 587 58 577 L 58 556 Q 58 546 68 546 Z"
         fill="#ffffff"
         paint-order="stroke fill markers"
         stroke="none"
         id="path296" />
    </g>
    <g
       id="g302">
      <path
         d=" M 68 546 L 203.24072265625 546 Q 213.24072265625 546 213.24072265625 556 L 213.24072265625 577 Q 213.24072265625 587 203.24072265625 587 L 68 587 Q 58 587 58 577 L 58 556 Q 58 546 68 546 Z"
         fill="none"
         paint-order="fill stroke markers"
         stroke="#000000"
         stroke-dasharray=""
         stroke-miterlimit="10"
         id="path300" />
    </g>
    <g
       id="g310">
      <g
         id="g308">
        <path
           fill="none"
           stroke="none"
           id="path304" />
        <text
           dominant-baseline="central"
           fill="#000000"
           font-family="Arial"
           font-size="13px"
           font-style="normal"
           font-weight="bold"
           stroke="none"
           text-anchor="middle"
           text-decoration="undefined"
           transform="matrix(1 0 0 1 -30 -14)"
           x="166.120361328125"
           y="573.5"
           id="text306">Verifica as Informações</text>
      </g>
    </g>
    <g
       id="g314">
      <path
         d=" M 137 500 L 135 545"
         fill="none"
         paint-order="fill stroke markers"
         stroke="#000000"
         stroke-dasharray=""
         stroke-miterlimit="10"
         id="path312" />
    </g>
    <g
       id="g318">
      <path
         d=" M 131.24586264288175 534.660442335192 L 135 545 L 139.656595356531 535.0342526780208"
         fill="none"
         paint-order="fill stroke markers"
         stroke="#000000"
         stroke-dasharray=""
         stroke-miterlimit="10"
         id="path316" />
    </g>
    <g
       id="g322">
      <path
         d=" M 315 601 L 562.91796875 601 Q 572.91796875 601 572.91796875 611 L 572.91796875 632 Q 572.91796875 642 562.91796875 642 L 315 642 Q 305 642 305 632 L 305 611 Q 305 601 315 601 Z"
         fill="#C0C0C0"
         fill-opacity="0.2"
         paint-order="stroke fill markers"
         stroke="none"
         id="path320" />
    </g>
    <g
       id="g326">
      <path
         d=" M 308 594 L 555.91796875 594 Q 565.91796875 594 565.91796875 604 L 565.91796875 625 Q 565.91796875 635 555.91796875 635 L 308 635 Q 298 635 298 625 L 298 604 Q 298 594 308 594 Z"
         fill="#ffffff"
         paint-order="stroke fill markers"
         stroke="none"
         id="path324" />
    </g>
    <g
       id="g330">
      <path
         d=" M 308 594 L 555.91796875 594 Q 565.91796875 594 565.91796875 604 L 565.91796875 625 Q 565.91796875 635 555.91796875 635 L 308 635 Q 298 635 298 625 L 298 604 Q 298 594 308 594 Z"
         fill="none"
         paint-order="fill stroke markers"
         stroke="#000000"
         stroke-dasharray=""
         stroke-miterlimit="10"
         id="path328" />
    </g>
    <g
       id="g338">
      <g
         id="g336">
        <path
           fill="none"
           stroke="none"
           id="path332" />
        <text
           dominant-baseline="central"
           fill="#000000"
           font-family="Arial"
           font-size="13px"
           font-style="normal"
           font-weight="bold"
           stroke="none"
           text-anchor="middle"
           text-decoration="undefined"
           transform="matrix(1 0 0 1 -30 -14)"
           x="462.458984375"
           y="621.5"
           id="text334">Salva as Informações no Banco de Dados</text>
      </g>
    </g>
    <g
       id="g342">
      <path
         d=" M 214 579 L 302 593"
         fill="none"
         paint-order="fill stroke markers"
         stroke="#000000"
         stroke-dasharray=""
         stroke-miterlimit="10"
         id="path340" />
    </g>
    <g
       id="g346">
      <path
         d=" M 291.3021638635355 595.5605276794745 L 302 593 L 292.62492103831124 587.2460540094557"
         fill="none"
         paint-order="fill stroke markers"
         stroke="#000000"
         stroke-dasharray=""
         stroke-miterlimit="10"
         id="path344" />
    </g>
    <g
       id="g350">
      <path
         d=" M 425 718 C 425 710.8202976 430.8202976 705 438 705 C 445.1797024 705 451 710.8202976 451 718 C 451 725.1797024 445.1797024 731 438 731 C 430.8202976 731 425 725.1797024 425 718 Z"
         fill="#C0C0C0"
         fill-opacity="0.2"
         paint-order="stroke fill markers"
         stroke="none"
         id="path348" />
    </g>
    <g
       id="g354">
      <path
         d=" M 418 711 C 418 703.8202976 423.8202976 698 431 698 C 438.1797024 698 444 703.8202976 444 711 C 444 718.1797024 438.1797024 724 431 724 C 423.8202976 724 418 718.1797024 418 711 Z"
         fill="none"
         paint-order="fill stroke markers"
         stroke="#000000"
         stroke-dasharray=""
         stroke-miterlimit="10"
         id="path352" />
    </g>
    <g
       id="g358">
      <path
         d=" M 423 711 C 423 706.5817216 426.5817216 703 431 703 C 435.4182784 703 439 706.5817216 439 711 C 439 715.4182784 435.4182784 719 431 719 C 426.5817216 719 423 715.4182784 423 711 Z"
         fill="#000000"
         paint-order="stroke fill markers"
         stroke="none"
         id="path356" />
    </g>
    <g
       id="g362">
      <path
         d=" M 431 636 L 431 697"
         fill="none"
         paint-order="fill stroke markers"
         stroke="#000000"
         stroke-dasharray=""
         stroke-miterlimit="10"
         id="path360" />
    </g>
    <g
       id="g366">
      <path
         d=" M 426.790482243984 686.8373251423759 L 431 697 L 435.209517756016 686.8373251423759"
         fill="none"
         paint-order="fill stroke markers"
         stroke="#000000"
         stroke-dasharray=""
         stroke-miterlimit="10"
         id="path364" />
    </g>
  </g>
</svg>
