<?xml version="1.0" encoding="UTF-8" standalone="no"?>
<svg
   height="756"
   version="1.1"
   width="572"
   id="svg438"
   sodipodi:docname="F_F03 - Gerenciar Agenda.svg"
   inkscape:version="1.1.1 (3bf5ae0d25, 2021-09-20)"
   xmlns:inkscape="http://www.inkscape.org/namespaces/inkscape"
   xmlns:sodipodi="http://sodipodi.sourceforge.net/DTD/sodipodi-0.dtd"
   xmlns="http://www.w3.org/2000/svg"
   xmlns:svg="http://www.w3.org/2000/svg">
  <sodipodi:namedview
     id="namedview440"
     pagecolor="#ffffff"
     bordercolor="#666666"
     borderopacity="1.0"
     inkscape:pageshadow="2"
     inkscape:pageopacity="0.0"
     inkscape:pagecheckerboard="0"
     showgrid="false"
     inkscape:zoom="0.77070898"
     inkscape:cx="398.33453"
     inkscape:cy="449.58604"
     inkscape:window-width="1920"
     inkscape:window-height="1009"
     inkscape:window-x="-8"
     inkscape:window-y="-8"
     inkscape:window-maximized="1"
     inkscape:current-layer="svg438" />
  <defs
     id="defs2" />
  <rect
     style="fill:#ffffff;stroke:#000000;stroke-width:2"
     id="rect1279"
     width="624.10071"
     height="805.75159"
     x="-29.842651"
     y="-22.057613" />
  <g
     id="g436"
     inkscape:export-filename="K:\ADS\SEMESTRE 3\Engenharia de Software II\Trabalho ERS\Diagramas de Atividade\F_F03 - Gerenciar Agenda.png"
     inkscape:export-xdpi="346.5704"
     inkscape:export-ydpi="346.5704">
    <g
       id="g6">
      <rect
         fill="#ffffff"
         height="21"
         stroke="none"
         transform="matrix(1 0 0 1 -54 -30)"
         width="224"
         x="64"
         y="40"
         id="rect4" />
    </g>
    <g
       id="g10">
      <path
         d=" M 10 10 L 234 10 L 234 31 L 10 31 L 10 10 Z Z"
         fill="none"
         paint-order="fill stroke markers"
         stroke="#000000"
         stroke-dasharray=""
         stroke-miterlimit="10"
         stroke-width="2"
         id="path8" />
    </g>
    <g
       id="g14">
      <path
         d=" M 10 746 L 10 10 L 234 10 L 234 746"
         fill="none"
         paint-order="fill stroke markers"
         stroke="#000000"
         stroke-dasharray=""
         stroke-miterlimit="10"
         stroke-width="2"
         id="path12" />
    </g>
    <g
       id="g22">
      <g
         id="g20">
        <path
           fill="none"
           stroke="none"
           id="path16" />
        <text
           dominant-baseline="text-before-edge"
           fill="#000000"
           font-family="Arial"
           font-size="13px"
           font-style="normal"
           font-weight="normal"
           stroke="none"
           text-anchor="middle"
           text-decoration="undefined"
           transform="matrix(1 0 0 1 -54 -30)"
           x="176"
           y="44"
           id="text18">Luthier</text>
      </g>
    </g>
    <g
       id="g26">
      <rect
         fill="#ffffff"
         height="21"
         stroke="none"
         transform="matrix(1 0 0 1 -54 -30)"
         width="328"
         x="288"
         y="40"
         id="rect24" />
    </g>
    <g
       id="g30">
      <path
         d=" M 234 10 L 562 10 L 562 31 L 234 31 L 234 10 Z Z"
         fill="none"
         paint-order="fill stroke markers"
         stroke="#000000"
         stroke-dasharray=""
         stroke-miterlimit="10"
         stroke-width="2"
         id="path28" />
    </g>
    <g
       id="g34">
      <path
         d=" M 234 746 L 234 10 L 562 10 L 562 746"
         fill="none"
         paint-order="fill stroke markers"
         stroke="#000000"
         stroke-dasharray=""
         stroke-miterlimit="10"
         stroke-width="2"
         id="path32" />
    </g>
    <g
       id="g42">
      <g
         id="g40">
        <path
           fill="none"
           stroke="none"
           id="path36" />
        <text
           dominant-baseline="text-before-edge"
           fill="#000000"
           font-family="Arial"
           font-size="13px"
           font-style="normal"
           font-weight="normal"
           stroke="none"
           text-anchor="middle"
           text-decoration="undefined"
           transform="matrix(1 0 0 1 -54 -30)"
           x="452"
           y="44"
           id="text38">Sistema</text>
      </g>
    </g>
    <g
       id="g46">
      <path
         d=" M 121 67 C 121 61.477152000000004 125.47715199999999 57 131 57 C 136.522848 57 141 61.477152000000004 141 67 C 141 72.522848 136.522848 77 131 77 C 125.47715199999999 77 121 72.522848 121 67 Z"
         fill="#C0C0C0"
         fill-opacity="0.2"
         paint-order="stroke fill markers"
         stroke="none"
         id="path44" />
    </g>
    <g
       id="g50">
      <path
         d=" M 114 60 C 114 54.477152000000004 118.47715199999999 50 124 50 C 129.522848 50 134 54.477152000000004 134 60 C 134 65.522848 129.522848 70 124 70 C 118.47715199999999 70 114 65.522848 114 60 Z"
         fill="#000000"
         paint-order="stroke fill markers"
         stroke="none"
         id="path48" />
    </g>
    <g
       id="g54">
      <path
         d=" M 75 113 L 197.1962890625 113 Q 207.1962890625 113 207.1962890625 123 L 207.1962890625 144 Q 207.1962890625 154 197.1962890625 154 L 75 154 Q 65 154 65 144 L 65 123 Q 65 113 75 113 Z"
         fill="#C0C0C0"
         fill-opacity="0.2"
         paint-order="stroke fill markers"
         stroke="none"
         id="path52" />
    </g>
    <g
       id="g58">
      <path
         d=" M 68 106 L 190.1962890625 106 Q 200.1962890625 106 200.1962890625 116 L 200.1962890625 137 Q 200.1962890625 147 190.1962890625 147 L 68 147 Q 58 147 58 137 L 58 116 Q 58 106 68 106 Z"
         fill="#ffffff"
         paint-order="stroke fill markers"
         stroke="none"
         id="path56" />
    </g>
    <g
       id="g62">
      <path
         d=" M 68 106 L 190.1962890625 106 Q 200.1962890625 106 200.1962890625 116 L 200.1962890625 137 Q 200.1962890625 147 190.1962890625 147 L 68 147 Q 58 147 58 137 L 58 116 Q 58 106 68 106 Z"
         fill="none"
         paint-order="fill stroke markers"
         stroke="#000000"
         stroke-dasharray=""
         stroke-miterlimit="10"
         id="path60" />
    </g>
    <g
       id="g70">
      <g
         id="g68">
        <path
           fill="none"
           stroke="none"
           id="path64" />
        <text
           dominant-baseline="central"
           fill="#000000"
           font-family="Arial"
           font-size="13px"
           font-style="normal"
           font-weight="bold"
           stroke="none"
           text-anchor="middle"
           text-decoration="undefined"
           transform="matrix(1 0 0 1 -54 -30)"
           x="183.59814453125"
           y="149.5"
           id="text66">Autentica no Sistema</text>
      </g>
    </g>
    <g
       id="g74">
      <path
         d=" M 125 71 L 127 105"
         fill="none"
         paint-order="fill stroke markers"
         stroke="#000000"
         stroke-dasharray=""
         stroke-miterlimit="10"
         id="path72" />
    </g>
    <g
       id="g78">
      <path
         d=" M 122.20097348466905 95.10205352079784 L 127 105 L 130.6054808831808 94.60767073265008"
         fill="none"
         paint-order="fill stroke markers"
         stroke="#000000"
         stroke-dasharray=""
         stroke-miterlimit="10"
         id="path76" />
    </g>
    <g
       id="g82">
      <path
         d=" M 259 145 L 543.0107421875 145 Q 553.0107421875 145 553.0107421875 155 L 553.0107421875 176 Q 553.0107421875 186 543.0107421875 186 L 259 186 Q 249 186 249 176 L 249 155 Q 249 145 259 145 Z"
         fill="#C0C0C0"
         fill-opacity="0.2"
         paint-order="stroke fill markers"
         stroke="none"
         id="path80" />
    </g>
    <g
       id="g86">
      <path
         d=" M 252 138 L 536.0107421875 138 Q 546.0107421875 138 546.0107421875 148 L 546.0107421875 169 Q 546.0107421875 179 536.0107421875 179 L 252 179 Q 242 179 242 169 L 242 148 Q 242 138 252 138 Z"
         fill="#ffffff"
         paint-order="stroke fill markers"
         stroke="none"
         id="path84" />
    </g>
    <g
       id="g90">
      <path
         d=" M 252 138 L 536.0107421875 138 Q 546.0107421875 138 546.0107421875 148 L 546.0107421875 169 Q 546.0107421875 179 536.0107421875 179 L 252 179 Q 242 179 242 169 L 242 148 Q 242 138 252 138 Z"
         fill="none"
         paint-order="fill stroke markers"
         stroke="#000000"
         stroke-dasharray=""
         stroke-miterlimit="10"
         id="path88" />
    </g>
    <g
       id="g98">
      <g
         id="g96">
        <path
           fill="none"
           stroke="none"
           id="path92" />
        <text
           dominant-baseline="central"
           fill="#000000"
           font-family="Arial"
           font-size="13px"
           font-style="normal"
           font-weight="bold"
           stroke="none"
           text-anchor="middle"
           text-decoration="undefined"
           transform="matrix(1 0 0 1 -54 -30)"
           x="448.50537109375"
           y="181.5"
           id="text94">Acessa o Módulo de Gerenciamento de Agenda</text>
      </g>
    </g>
    <g
       id="g102">
      <path
         d=" M 201 135 L 241 140"
         fill="none"
         paint-order="fill stroke markers"
         stroke="#000000"
         stroke-dasharray=""
         stroke-miterlimit="10"
         id="path100" />
    </g>
    <g
       id="g106">
      <path
         d=" M 230.39367615292934 142.9164866622462 L 241 140 L 231.43792898816133 134.56246398039013"
         fill="none"
         paint-order="fill stroke markers"
         stroke="#000000"
         stroke-dasharray=""
         stroke-miterlimit="10"
         id="path104" />
    </g>
    <g
       id="g110">
      <path
         d=" M 331 225 L 454.66259765625 225 Q 464.66259765625 225 464.66259765625 235 L 464.66259765625 256 Q 464.66259765625 266 454.66259765625 266 L 331 266 Q 321 266 321 256 L 321 235 Q 321 225 331 225 Z"
         fill="#C0C0C0"
         fill-opacity="0.2"
         paint-order="stroke fill markers"
         stroke="none"
         id="path108" />
    </g>
    <g
       id="g114">
      <path
         d=" M 324 218 L 447.66259765625 218 Q 457.66259765625 218 457.66259765625 228 L 457.66259765625 249 Q 457.66259765625 259 447.66259765625 259 L 324 259 Q 314 259 314 249 L 314 228 Q 314 218 324 218 Z"
         fill="#ffffff"
         paint-order="stroke fill markers"
         stroke="none"
         id="path112" />
    </g>
    <g
       id="g118">
      <path
         d=" M 324 218 L 447.66259765625 218 Q 457.66259765625 218 457.66259765625 228 L 457.66259765625 249 Q 457.66259765625 259 447.66259765625 259 L 324 259 Q 314 259 314 249 L 314 228 Q 314 218 324 218 Z"
         fill="none"
         paint-order="fill stroke markers"
         stroke="#000000"
         stroke-dasharray=""
         stroke-miterlimit="10"
         id="path116" />
    </g>
    <g
       id="g126">
      <g
         id="g124">
        <path
           fill="none"
           stroke="none"
           id="path120" />
        <text
           dominant-baseline="central"
           fill="#000000"
           font-family="Arial"
           font-size="13px"
           font-style="normal"
           font-weight="bold"
           stroke="none"
           text-anchor="middle"
           text-decoration="undefined"
           transform="matrix(1 0 0 1 -54 -30)"
           x="440.331298828125"
           y="261.5"
           id="text122">Exibe a Agenda Geral</text>
      </g>
    </g>
    <g
       id="g130">
      <path
         d=" M 392 180 L 387 217"
         fill="none"
         paint-order="fill stroke markers"
         stroke="#000000"
         stroke-dasharray=""
         stroke-miterlimit="10"
         id="path128" />
    </g>
    <g
       id="g134">
      <path
         d=" M 384.1893638027896 206.36513638230699 L 387 217 L 392.532564266569 207.49259590443933"
         fill="none"
         paint-order="fill stroke markers"
         stroke="#000000"
         stroke-dasharray=""
         stroke-miterlimit="10"
         id="path132" />
    </g>
    <g
       id="g138">
      <path
         d=" M 51 257 L 207.16259765625 257 Q 217.16259765625 257 217.16259765625 267 L 217.16259765625 288 Q 217.16259765625 298 207.16259765625 298 L 51 298 Q 41 298 41 288 L 41 267 Q 41 257 51 257 Z"
         fill="#C0C0C0"
         fill-opacity="0.2"
         paint-order="stroke fill markers"
         stroke="none"
         id="path136" />
    </g>
    <g
       id="g142">
      <path
         d=" M 44 250 L 200.16259765625 250 Q 210.16259765625 250 210.16259765625 260 L 210.16259765625 281 Q 210.16259765625 291 200.16259765625 291 L 44 291 Q 34 291 34 281 L 34 260 Q 34 250 44 250 Z"
         fill="#ffffff"
         paint-order="stroke fill markers"
         stroke="none"
         id="path140" />
    </g>
    <g
       id="g146">
      <path
         d=" M 44 250 L 200.16259765625 250 Q 210.16259765625 250 210.16259765625 260 L 210.16259765625 281 Q 210.16259765625 291 200.16259765625 291 L 44 291 Q 34 291 34 281 L 34 260 Q 34 250 44 250 Z"
         fill="none"
         paint-order="fill stroke markers"
         stroke="#000000"
         stroke-dasharray=""
         stroke-miterlimit="10"
         id="path144" />
    </g>
    <g
       id="g154">
      <g
         id="g152">
        <path
           fill="none"
           stroke="none"
           id="path148" />
        <text
           dominant-baseline="central"
           fill="#000000"
           font-family="Arial"
           font-size="13px"
           font-style="normal"
           font-weight="bold"
           stroke="none"
           text-anchor="middle"
           text-decoration="undefined"
           transform="matrix(1 0 0 1 -54 -30)"
           x="176.581298828125"
           y="293.5"
           id="text150">Escolhe a Ação na Agenda</text>
      </g>
    </g>
    <g
       id="g158">
      <path
         d=" M 313 247 L 211 259"
         fill="none"
         paint-order="fill stroke markers"
         stroke="#000000"
         stroke-dasharray=""
         stroke-miterlimit="10"
         id="path156" />
    </g>
    <g
       id="g162">
      <path
         d=" M 220.60122137011632 253.63189528771824 L 211 259 L 221.58491198265637 261.9932654943085"
         fill="none"
         paint-order="fill stroke markers"
         stroke="#000000"
         stroke-dasharray=""
         stroke-miterlimit="10"
         id="path160" />
    </g>
    <g
       id="g166">
      <path
         d=" M 347 353 L 541.18505859375 353 Q 551.18505859375 353 551.18505859375 363 L 551.18505859375 384 Q 551.18505859375 394 541.18505859375 394 L 347 394 Q 337 394 337 384 L 337 363 Q 337 353 347 353 Z"
         fill="#C0C0C0"
         fill-opacity="0.2"
         paint-order="stroke fill markers"
         stroke="none"
         id="path164" />
    </g>
    <g
       id="g170">
      <path
         d=" M 340 346 L 534.18505859375 346 Q 544.18505859375 346 544.18505859375 356 L 544.18505859375 377 Q 544.18505859375 387 534.18505859375 387 L 340 387 Q 330 387 330 377 L 330 356 Q 330 346 340 346 Z"
         fill="#ffffff"
         paint-order="stroke fill markers"
         stroke="none"
         id="path168" />
    </g>
    <g
       id="g174">
      <path
         d=" M 340 346 L 534.18505859375 346 Q 544.18505859375 346 544.18505859375 356 L 544.18505859375 377 Q 544.18505859375 387 534.18505859375 387 L 340 387 Q 330 387 330 377 L 330 356 Q 330 346 340 346 Z"
         fill="none"
         paint-order="fill stroke markers"
         stroke="#000000"
         stroke-dasharray=""
         stroke-miterlimit="10"
         id="path172" />
    </g>
    <g
       id="g182">
      <g
         id="g180">
        <path
           fill="none"
           stroke="none"
           id="path176" />
        <text
           dominant-baseline="central"
           fill="#000000"
           font-family="Arial"
           font-size="13px"
           font-style="normal"
           font-weight="bold"
           stroke="none"
           text-anchor="middle"
           text-decoration="undefined"
           transform="matrix(1 0 0 1 -54 -30)"
           x="491.592529296875"
           y="389.5"
           id="text178">Abre Tela de Novo Compromisso</text>
      </g>
    </g>
    <g
       id="g186">
      <path
         d=" M 323 409 L 502.744140625 409 Q 512.744140625 409 512.744140625 419 L 512.744140625 440 Q 512.744140625 450 502.744140625 450 L 323 450 Q 313 450 313 440 L 313 419 Q 313 409 323 409 Z"
         fill="#C0C0C0"
         fill-opacity="0.2"
         paint-order="stroke fill markers"
         stroke="none"
         id="path184" />
    </g>
    <g
       id="g190">
      <path
         d=" M 316 402 L 495.744140625 402 Q 505.744140625 402 505.744140625 412 L 505.744140625 433 Q 505.744140625 443 495.744140625 443 L 316 443 Q 306 443 306 433 L 306 412 Q 306 402 316 402 Z"
         fill="#ffffff"
         paint-order="stroke fill markers"
         stroke="none"
         id="path188" />
    </g>
    <g
       id="g194">
      <path
         d=" M 316 402 L 495.744140625 402 Q 505.744140625 402 505.744140625 412 L 505.744140625 433 Q 505.744140625 443 495.744140625 443 L 316 443 Q 306 443 306 433 L 306 412 Q 306 402 316 402 Z"
         fill="none"
         paint-order="fill stroke markers"
         stroke="#000000"
         stroke-dasharray=""
         stroke-miterlimit="10"
         id="path192" />
    </g>
    <g
       id="g202">
      <g
         id="g200">
        <path
           fill="none"
           stroke="none"
           id="path196" />
        <text
           dominant-baseline="central"
           fill="#000000"
           font-family="Arial"
           font-size="13px"
           font-style="normal"
           font-weight="bold"
           stroke="none"
           text-anchor="middle"
           text-decoration="undefined"
           transform="matrix(1 0 0 1 -54 -30)"
           x="460.3720703125"
           y="445.5"
           id="text198">Abre Tela Editar Compromisso</text>
      </g>
    </g>
    <g
       id="g206">
      <path
         d=" M 291 465 L 461.15283203125 465 Q 471.15283203125 465 471.15283203125 475 L 471.15283203125 496 Q 471.15283203125 506 461.15283203125 506 L 291 506 Q 281 506 281 496 L 281 475 Q 281 465 291 465 Z"
         fill="#C0C0C0"
         fill-opacity="0.2"
         paint-order="stroke fill markers"
         stroke="none"
         id="path204" />
    </g>
    <g
       id="g210">
      <path
         d=" M 284 458 L 454.15283203125 458 Q 464.15283203125 458 464.15283203125 468 L 464.15283203125 489 Q 464.15283203125 499 454.15283203125 499 L 284 499 Q 274 499 274 489 L 274 468 Q 274 458 284 458 Z"
         fill="#ffffff"
         paint-order="stroke fill markers"
         stroke="none"
         id="path208" />
    </g>
    <g
       id="g214">
      <path
         d=" M 284 458 L 454.15283203125 458 Q 464.15283203125 458 464.15283203125 468 L 464.15283203125 489 Q 464.15283203125 499 454.15283203125 499 L 284 499 Q 274 499 274 489 L 274 468 Q 274 458 284 458 Z"
         fill="none"
         paint-order="fill stroke markers"
         stroke="#000000"
         stroke-dasharray=""
         stroke-miterlimit="10"
         id="path212" />
    </g>
    <g
       id="g222">
      <g
         id="g220">
        <path
           fill="none"
           stroke="none"
           id="path216" />
        <text
           dominant-baseline="central"
           fill="#000000"
           font-family="Arial"
           font-size="13px"
           font-style="normal"
           font-weight="bold"
           stroke="none"
           text-anchor="middle"
           text-decoration="undefined"
           transform="matrix(1 0 0 1 -54 -30)"
           x="423.576416015625"
           y="501.5"
           id="text218">Abre Tela Visualizar Detalhes</text>
      </g>
    </g>
    <g
       id="g226">
      <path
         d=" M 267 521 L 409.42626953125 521 Q 419.42626953125 521 419.42626953125 531 L 419.42626953125 552 Q 419.42626953125 562 409.42626953125 562 L 267 562 Q 257 562 257 552 L 257 531 Q 257 521 267 521 Z"
         fill="#C0C0C0"
         fill-opacity="0.2"
         paint-order="stroke fill markers"
         stroke="none"
         id="path224" />
    </g>
    <g
       id="g230">
      <path
         d=" M 260 514 L 402.42626953125 514 Q 412.42626953125 514 412.42626953125 524 L 412.42626953125 545 Q 412.42626953125 555 402.42626953125 555 L 260 555 Q 250 555 250 545 L 250 524 Q 250 514 260 514 Z"
         fill="#ffffff"
         paint-order="stroke fill markers"
         stroke="none"
         id="path228" />
    </g>
    <g
       id="g234">
      <path
         d=" M 260 514 L 402.42626953125 514 Q 412.42626953125 514 412.42626953125 524 L 412.42626953125 545 Q 412.42626953125 555 402.42626953125 555 L 260 555 Q 250 555 250 545 L 250 524 Q 250 514 260 514 Z"
         fill="none"
         paint-order="fill stroke markers"
         stroke="#000000"
         stroke-dasharray=""
         stroke-miterlimit="10"
         id="path232" />
    </g>
    <g
       id="g242">
      <g
         id="g240">
        <path
           fill="none"
           stroke="none"
           id="path236" />
        <text
           dominant-baseline="central"
           fill="#000000"
           font-family="Arial"
           font-size="13px"
           font-style="normal"
           font-weight="bold"
           stroke="none"
           text-anchor="middle"
           text-decoration="undefined"
           transform="matrix(1 0 0 1 -54 -30)"
           x="385.713134765625"
           y="557.5"
           id="text238">Cancela o Compromisso</text>
      </g>
    </g>
    <g
       id="g246">
      <path
         d=" M 113 346.5 L 124.5 337 L 136 346.5 L 124.5 356 L 113 346.5"
         fill="#C0C0C0"
         fill-opacity="0.2"
         paint-order="stroke fill markers"
         stroke="none"
         id="path244" />
    </g>
    <g
       id="g250">
      <path
         d=" M 106 339.5 L 117.5 330 L 129 339.5 L 117.5 349 L 106 339.5"
         fill="#ffffff"
         paint-order="stroke fill markers"
         stroke="none"
         id="path248" />
    </g>
    <g
       id="g254">
      <path
         d=" M 106 339.5 L 117.5 330 L 129 339.5 L 117.5 349 L 106 339.5 L 106 339.5"
         fill="none"
         paint-order="fill stroke markers"
         stroke="#000000"
         stroke-dasharray=""
         stroke-miterlimit="10"
         id="path252" />
    </g>
    <g
       id="g258">
      <path
         d=" M 120 292 L 118 329"
         fill="none"
         paint-order="fill stroke markers"
         stroke="#000000"
         stroke-dasharray=""
         stroke-miterlimit="10"
         id="path256" />
    </g>
    <g
       id="g262">
      <path
         d=" M 114.34515156806859 318.6249297380881 L 118 329 L 122.75191442705707 319.0793493520875"
         fill="none"
         paint-order="fill stroke markers"
         stroke="#000000"
         stroke-dasharray=""
         stroke-miterlimit="10"
         id="path260" />
    </g>
    <g
       id="g266">
      <path
         d=" M 130 340 L 329 357"
         fill="none"
         paint-order="fill stroke markers"
         stroke="#000000"
         stroke-dasharray=""
         stroke-miterlimit="10"
         id="path264" />
    </g>
    <g
       id="g270">
      <path
         d=" M 318.51590395093734 360.32922363833205 L 329 357 L 319.23250797834555 351.9407411998479"
         fill="none"
         paint-order="fill stroke markers"
         stroke="#000000"
         stroke-dasharray=""
         stroke-miterlimit="10"
         id="path268" />
    </g>
    <g
       id="g274">
      <rect
         fill="#ffffff"
         height="13"
         stroke="none"
         transform="matrix(1 0 0 1 -54 -30)"
         width="169.787109375"
         x="200"
         y="357"
         id="rect272" />
    </g>
    <g
       id="g282">
      <g
         id="g280">
        <path
           fill="none"
           stroke="none"
           id="path276" />
        <text
           dominant-baseline="central"
           fill="#000000"
           font-family="Arial"
           font-size="13px"
           font-style="normal"
           font-weight="normal"
           stroke="none"
           text-anchor="middle"
           text-decoration="undefined"
           transform="matrix(1 0 0 1 -54 -30)"
           x="284.8935546875"
           y="363.5"
           id="text278">Cadastrar novo compromisso</text>
      </g>
    </g>
    <g
       id="g286">
      <path
         d=" M 130 350 L 194 402 L 305 413"
         fill="none"
         paint-order="fill stroke markers"
         stroke="#000000"
         stroke-dasharray=""
         stroke-miterlimit="10"
         id="path284" />
    </g>
    <g
       id="g290">
      <path
         d=" M 294.4717365177107 416.18679589046656 L 305 413 L 295.3019885131482 407.8087984819609"
         fill="none"
         paint-order="fill stroke markers"
         stroke="#000000"
         stroke-dasharray=""
         stroke-miterlimit="10"
         id="path288" />
    </g>
    <g
       id="g294">
      <rect
         fill="#ffffff"
         height="13"
         stroke="none"
         transform="matrix(1 0 0 1 -54 -30)"
         width="174.83984375"
         x="162"
         y="411"
         id="rect292" />
    </g>
    <g
       id="g302">
      <g
         id="g300">
        <path
           fill="none"
           stroke="none"
           id="path296" />
        <text
           dominant-baseline="central"
           fill="#000000"
           font-family="Arial"
           font-size="13px"
           font-style="normal"
           font-weight="normal"
           stroke="none"
           text-anchor="middle"
           text-decoration="undefined"
           transform="matrix(1 0 0 1 -54 -30)"
           x="249.419921875"
           y="417.5"
           id="text298">Editar Compromisso Existente</text>
      </g>
    </g>
    <g
       id="g306">
      <path
         d=" M 125 350 L 194 450 L 273 463"
         fill="none"
         paint-order="fill stroke markers"
         stroke="#000000"
         stroke-dasharray=""
         stroke-miterlimit="10"
         id="path304" />
    </g>
    <g
       id="g310">
      <path
         d=" M 262.2886768976322 465.50350901669657 L 273 463 L 263.65570259636775 457.1961990013034"
         fill="none"
         paint-order="fill stroke markers"
         stroke="#000000"
         stroke-dasharray=""
         stroke-miterlimit="10"
         id="path308" />
    </g>
    <g
       id="g314">
      <rect
         fill="#ffffff"
         height="13"
         stroke="none"
         transform="matrix(1 0 0 1 -54 -30)"
         width="212.90673828125"
         x="144"
         y="459"
         id="rect312" />
    </g>
    <g
       id="g322">
      <g
         id="g320">
        <path
           fill="none"
           stroke="none"
           id="path316" />
        <text
           dominant-baseline="central"
           fill="#000000"
           font-family="Arial"
           font-size="13px"
           font-style="normal"
           font-weight="normal"
           stroke="none"
           text-anchor="middle"
           text-decoration="undefined"
           transform="matrix(1 0 0 1 -54 -30)"
           x="250.453369140625"
           y="465.5"
           id="text318">Visualizar Detalhes de Compromisso</text>
      </g>
    </g>
    <g
       id="g326">
      <path
         d=" M 120 350 L 162 490 L 250 513"
         fill="none"
         paint-order="fill stroke markers"
         stroke="#000000"
         stroke-dasharray=""
         stroke-miterlimit="10"
         id="path324" />
    </g>
    <g
       id="g330">
      <path
         d=" M 239.10314951608427 514.502880411472 L 250 513 L 241.23206619898303 506.3574600595116"
         fill="none"
         paint-order="fill stroke markers"
         stroke="#000000"
         stroke-dasharray=""
         stroke-miterlimit="10"
         id="path328" />
    </g>
    <g
       id="g334">
      <rect
         fill="#ffffff"
         height="13"
         stroke="none"
         transform="matrix(1 0 0 1 -54 -30)"
         width="135.82080078125"
         x="152"
         y="499"
         id="rect332" />
    </g>
    <g
       id="g342">
      <g
         id="g340">
        <path
           fill="none"
           stroke="none"
           id="path336" />
        <text
           dominant-baseline="central"
           fill="#000000"
           font-family="Arial"
           font-size="13px"
           font-style="normal"
           font-weight="normal"
           stroke="none"
           text-anchor="middle"
           text-decoration="undefined"
           transform="matrix(1 0 0 1 -54 -30)"
           x="219.910400390625"
           y="505.5"
           id="text338">Cancelar Compromisso</text>
      </g>
    </g>
    <g
       id="g346">
      <path
         d=" M 385 626.5 L 396.5 617 L 408 626.5 L 396.5 636 L 385 626.5"
         fill="#C0C0C0"
         fill-opacity="0.2"
         paint-order="stroke fill markers"
         stroke="none"
         id="path344" />
    </g>
    <g
       id="g350">
      <path
         d=" M 378 619.5 L 389.5 610 L 401 619.5 L 389.5 629 L 378 619.5"
         fill="#ffffff"
         paint-order="stroke fill markers"
         stroke="none"
         id="path348" />
    </g>
    <g
       id="g354">
      <path
         d=" M 378 619.5 L 389.5 610 L 401 619.5 L 389.5 629 L 378 619.5 L 378 619.5"
         fill="none"
         paint-order="fill stroke markers"
         stroke="#000000"
         stroke-dasharray=""
         stroke-miterlimit="10"
         id="path352" />
    </g>
    <g
       id="g358">
      <path
         d=" M 346 556 L 382 609"
         fill="none"
         paint-order="fill stroke markers"
         stroke="#000000"
         stroke-dasharray=""
         stroke-miterlimit="10"
         id="path356" />
    </g>
    <g
       id="g362">
      <path
         d=" M 372.80758205135976 602.9585223448632 L 382 609 L 379.7719487513498 598.2280091146813"
         fill="none"
         paint-order="fill stroke markers"
         stroke="#000000"
         stroke-dasharray=""
         stroke-miterlimit="10"
         id="path360" />
    </g>
    <g
       id="g366">
      <path
         d=" M 416 500 L 442 512 L 394 609"
         fill="none"
         paint-order="fill stroke markers"
         stroke="#000000"
         stroke-dasharray=""
         stroke-miterlimit="10"
         id="path364" />
    </g>
    <g
       id="g370">
      <path
         d=" M 394.7344327593714 598.0245451792665 L 394 609 L 402.2801409148243 601.7585038541298"
         fill="none"
         paint-order="fill stroke markers"
         stroke="#000000"
         stroke-dasharray=""
         stroke-miterlimit="10"
         id="path368" />
    </g>
    <g
       id="g374">
      <path
         d=" M 465 444 L 498 456 L 396 609"
         fill="none"
         paint-order="fill stroke markers"
         stroke="#000000"
         stroke-dasharray=""
         stroke-miterlimit="10"
         id="path372" />
    </g>
    <g
       id="g378">
      <path
         d=" M 398.13470724978384 598.2091230681783 L 396 609 L 405.1397682256108 602.8791637187297"
         fill="none"
         paint-order="fill stroke markers"
         stroke="#000000"
         stroke-dasharray=""
         stroke-miterlimit="10"
         id="path376" />
    </g>
    <g
       id="g382">
      <path
         d=" M 509 388 L 554 402 L 397 609"
         fill="none"
         paint-order="fill stroke markers"
         stroke="#000000"
         stroke-dasharray=""
         stroke-miterlimit="10"
         id="path380" />
    </g>
    <g
       id="g386">
      <path
         d=" M 399.787372066557 598.3590152259023 L 397 609 L 406.4952821822196 603.4466571976851"
         fill="none"
         paint-order="fill stroke markers"
         stroke="#000000"
         stroke-dasharray=""
         stroke-miterlimit="10"
         id="path384" />
    </g>
    <g
       id="g390">
      <path
         d=" M 35 641 L 222.96435546875 641 Q 232.96435546875 641 232.96435546875 651 L 232.96435546875 672 Q 232.96435546875 682 222.96435546875 682 L 35 682 Q 25 682 25 672 L 25 651 Q 25 641 35 641 Z"
         fill="#C0C0C0"
         fill-opacity="0.2"
         paint-order="stroke fill markers"
         stroke="none"
         id="path388" />
    </g>
    <g
       id="g394">
      <path
         d=" M 28 634 L 215.96435546875 634 Q 225.96435546875 634 225.96435546875 644 L 225.96435546875 665 Q 225.96435546875 675 215.96435546875 675 L 28 675 Q 18 675 18 665 L 18 644 Q 18 634 28 634 Z"
         fill="#ffffff"
         paint-order="stroke fill markers"
         stroke="none"
         id="path392" />
    </g>
    <g
       id="g398">
      <path
         d=" M 28 634 L 215.96435546875 634 Q 225.96435546875 634 225.96435546875 644 L 225.96435546875 665 Q 225.96435546875 675 215.96435546875 675 L 28 675 Q 18 675 18 665 L 18 644 Q 18 634 28 634 Z"
         fill="none"
         paint-order="fill stroke markers"
         stroke="#000000"
         stroke-dasharray=""
         stroke-miterlimit="10"
         id="path396" />
    </g>
    <g
       id="g406">
      <g
         id="g404">
        <path
           fill="none"
           stroke="none"
           id="path400" />
        <text
           dominant-baseline="central"
           fill="#000000"
           font-family="Arial"
           font-size="13px"
           font-style="normal"
           font-weight="bold"
           stroke="none"
           text-anchor="middle"
           text-decoration="undefined"
           transform="matrix(1 0 0 1 -54 -30)"
           x="176.482177734375"
           y="677.5"
           id="text402">Confirma Alterações Realizadas</text>
      </g>
    </g>
    <g
       id="g410">
      <path
         d=" M 377 621 L 227 640"
         fill="none"
         paint-order="fill stroke markers"
         stroke="#000000"
         stroke-dasharray=""
         stroke-miterlimit="10"
         id="path408" />
    </g>
    <g
       id="g414">
      <path
         d=" M 236.55313684796988 634.5467829344542 L 227 640 L 237.61109461313225 642.8990810804729"
         fill="none"
         paint-order="fill stroke markers"
         stroke="#000000"
         stroke-dasharray=""
         stroke-miterlimit="10"
         id="path412" />
    </g>
    <g
       id="g418">
      <path
         d=" M 113 726 C 113 718.8202976 118.8202976 713 126 713 C 133.1797024 713 139 718.8202976 139 726 C 139 733.1797024 133.1797024 739 126 739 C 118.8202976 739 113 733.1797024 113 726 Z"
         fill="#C0C0C0"
         fill-opacity="0.2"
         paint-order="stroke fill markers"
         stroke="none"
         id="path416" />
    </g>
    <g
       id="g422">
      <path
         d=" M 106 719 C 106 711.8202976 111.8202976 706 119 706 C 126.1797024 706 132 711.8202976 132 719 C 132 726.1797024 126.1797024 732 119 732 C 111.8202976 732 106 726.1797024 106 719 Z"
         fill="none"
         paint-order="fill stroke markers"
         stroke="#000000"
         stroke-dasharray=""
         stroke-miterlimit="10"
         id="path420" />
    </g>
    <g
       id="g426">
      <path
         d=" M 111 719 C 111 714.5817216 114.58172160000001 711 119 711 C 123.41827839999999 711 127 714.5817216 127 719 C 127 723.4182784 123.41827839999999 727 119 727 C 114.58172160000001 727 111 723.4182784 111 719 Z"
         fill="#000000"
         paint-order="stroke fill markers"
         stroke="none"
         id="path424" />
    </g>
    <g
       id="g430">
      <path
         d=" M 120 676 L 119 705"
         fill="none"
         paint-order="fill stroke markers"
         stroke="#000000"
         stroke-dasharray=""
         stroke-miterlimit="10"
         id="path428" />
    </g>
    <g
       id="g434">
      <path
         d=" M 115.14321160446559 694.6982922157503 L 119 705 L 123.55724620396126 694.9884313398708"
         fill="none"
         paint-order="fill stroke markers"
         stroke="#000000"
         stroke-dasharray=""
         stroke-miterlimit="10"
         id="path432" />
    </g>
  </g>
</svg>
